<svg width="83" height="83" viewBox="0 0 83 83" fill="none" xmlns="http://www.w3.org/2000/svg">
<g clip-path="url(#clip0_368_373)">
<path d="M0 38.9065C1.0658 35.8969 3.88054 35.4177 6.63428 36.4719C8.24542 21.5988 19.5585 8.77572 34.3285 5.99761C32.3658 0.859149 37.4748 -1.56747 41.5354 1.12877C43.8556 -0.496988 47.4954 -0.598124 48.7174 2.37273C49.3194 3.83693 48.9227 4.56654 48.5761 5.99761C63.3345 8.77334 74.6527 21.5912 76.2703 36.4719C78.0625 35.8815 80.0306 35.5641 81.5965 36.8927C82.9535 38.044 83.3072 40.0511 82.4484 41.611L76.4274 48.0656V75.867H82.1756C82.6744 75.867 82.8743 76.6711 82.9118 77.0754C82.9989 78.0182 83.0606 81.2824 82.9012 82.1047C82.8207 82.5197 82.422 82.6483 82.2567 82.9998H0V76.5154C0.263476 76.1715 0.449943 75.9506 0.900535 75.8767C2.53331 75.6088 4.77437 76.0552 6.4768 75.867V48.0656L0.975381 42.3878L0 40.5275V38.9065ZM41.6111 10.0502C41.6301 9.85942 41.7158 9.69894 41.8471 9.56185C43.1123 8.23993 45.4207 6.27157 46.3798 4.85306C47.8186 2.72508 45.1263 1.5357 43.1785 2.7829C42.4463 3.25177 42.4255 3.95171 41.3677 3.90731C40.4875 3.8705 40.433 3.26953 39.8226 2.84831C38.0596 1.63164 35.2411 2.33505 36.4599 4.75582L41.2769 9.94799L41.6109 10.0504L41.6111 10.0502ZM9.06873 36.3123C9.40727 36.1769 10.4238 36.0386 10.6046 35.8252C10.9109 35.464 11.7872 32.8535 12.1156 32.1505C13.2619 29.6958 15.4067 25.1734 17.09 23.1893C18.0051 22.1108 19.438 22.838 19.0315 24.3219C18.7566 25.3255 16.604 28.2777 15.9459 29.5009C15.4127 30.4917 14.8473 31.6137 14.3826 32.637C14.0826 33.2975 13.0509 35.4123 12.9772 35.9476C12.9588 36.0814 12.9237 36.1973 13.0274 36.3119L14.6878 37.7505C26.223 32.87 34.9074 22.1162 37.8854 9.94799C37.8954 9.63202 36.8216 8.27155 36.5224 8.09873C35.9238 7.75244 33.9525 8.31898 33.193 8.51042C20.4759 11.7152 10.2899 23.1652 9.06873 36.3123ZM73.8357 36.3123C72.6269 23.552 63.068 12.4032 50.8431 8.83614C49.8433 8.54443 48.1627 8.03116 47.1757 7.95753C46.8166 7.93089 46.7114 7.90772 46.3818 8.09852C46.2717 8.16219 45.1403 9.4657 45.0921 9.57052C44.8944 9.99932 45.4901 11.6719 45.6588 12.2432C48.9441 23.3677 57.5585 33.2559 68.2166 37.7505C68.5744 37.3102 69.9889 36.3957 69.9272 35.9478C69.8535 35.4123 68.8218 33.2977 68.5218 32.6372C68.0571 31.6139 67.4917 30.4921 66.9585 29.5011C66.3623 28.3931 64.0524 25.1535 63.8374 24.3598C63.4236 22.8326 64.8987 22.1095 65.8146 23.1895C67.4525 25.121 69.6665 29.7471 70.789 32.1508C71.1488 32.9213 71.926 35.3737 72.3033 35.8224C72.5421 36.1063 73.4554 36.1856 73.8359 36.3127L73.8357 36.3123ZM53.2726 75.8672C53.6337 63.2516 59.829 51.1531 69.9478 43.689C69.951 43.5686 68.5622 42.1981 68.3576 41.8793C68.0314 41.3711 67.917 40.3785 67.6827 40.1234C67.5194 39.9454 64.026 38.3446 63.3648 37.9619C53.5744 32.2961 46.1732 22.7711 43.1539 11.8328C42.9321 11.5036 42.477 12.2947 42.1091 12.4101C41.191 12.6982 40.4815 12.3963 39.9138 11.6758C39.2837 13.1228 38.8816 14.7161 38.2923 16.2093C34.6653 25.4024 27.7877 33.2624 19.2158 38.1243C18.595 38.4764 15.3727 39.9588 15.2215 40.1234C14.9872 40.3785 14.8728 41.3711 14.5466 41.8793C14.3419 42.1981 12.9532 43.5683 12.9564 43.689C23.0734 51.1471 29.2647 63.26 29.6316 75.8672H53.2726ZM3.35316 38.293C2.33408 38.5252 1.97045 39.8434 2.52293 40.6768L7.55169 45.8657C7.76498 45.9029 8.8509 44.7369 9.07198 44.5037C9.78388 43.7526 12.3998 41.1688 12.6934 40.5111C13.5837 38.5161 11.4662 37.8614 9.83082 38.4548C9.0073 38.7536 8.28155 39.8558 7.69273 39.8947C6.779 39.9554 6.57025 39.2407 5.98078 38.8359C5.26131 38.3422 4.21129 38.0975 3.35316 38.293ZM71.0432 38.2984C69.5919 38.6668 69.9391 40.2425 70.6778 41.1777C71.9083 42.7352 73.9088 44.3142 75.2355 45.8655L75.6227 45.6394C76.884 44.1004 79.1309 42.4314 80.2396 40.8582C81.7932 38.6536 78.9129 37.4482 76.9238 38.8355C76.3363 39.2455 76.12 39.9547 75.2121 39.8945C74.6131 39.8547 74.4338 39.3172 73.9847 39.0018C73.1039 38.3838 72.1497 38.0175 71.0434 38.2982L71.0432 38.2984ZM27.365 75.8672C27.0489 66.3665 23.28 57.1102 16.8443 50.1688C16.1925 49.4659 11.8545 45.3037 11.2773 45.4163L8.74404 48.0658V75.8672H21.8599C22.1035 72.0442 21.4461 68.698 19.6774 65.3267C19.1308 64.2848 17.2248 61.7127 17.0394 60.8354C16.7898 59.6546 17.6843 58.8622 18.714 59.4833C19.0438 59.6824 21.6572 64.1192 21.9931 64.7914C23.7274 68.2636 24.3378 71.9879 24.1269 75.867H27.3654L27.365 75.8672ZM74.1606 75.8672V48.0658L71.6273 45.4165C71.3285 45.3583 68.5958 47.6701 68.1672 48.0634C60.4936 55.1074 55.8678 65.4201 55.5394 75.8672H58.7779C58.567 71.9879 59.1773 68.2638 60.9117 64.7916C61.2474 64.1194 63.861 59.6824 64.1909 59.4836C65.2208 58.8622 66.1152 59.6549 65.8654 60.8356C65.6798 61.7129 63.774 64.2848 63.2274 65.3269C61.4588 68.6982 60.8014 72.0444 61.0449 75.8674H74.1608L74.1606 75.8672ZM80.6376 78.1366H2.26702V80.7304H80.6376V78.1366Z" fill="#79283B"/>
</g>
<defs>
<clipPath id="clip0_368_373">
<rect width="83" height="83" fill="white"/>
</clipPath>
</defs>
</svg>
