<svg width="75" height="99" viewBox="0 0 75 99" fill="none" xmlns="http://www.w3.org/2000/svg">
<path d="M74.6185 92.9871C74.387 93.216 73.8252 93.3943 73.5068 93.5238C68.0164 95.753 61.6702 96.8753 56.0904 98.9885C53.6553 99.2519 53.5939 94.8614 53.8762 93.0411C54.4681 89.2223 57.9074 88.9401 57.553 84.7009L51.5936 61.7578C45.9429 58.2096 39.8873 55.1959 37.6095 47.8862C37.4944 47.7909 37.334 48.1287 37.2777 48.2414C36.1818 50.4318 35.5444 52.1458 33.9455 54.0759C30.9687 57.669 26.9078 59.2152 23.3532 61.8514L17.3317 85.525C17.4762 88.4381 19.9581 89.319 20.824 91.9646C21.4293 93.8139 21.6907 99.2844 18.9449 98.9885C13.4779 97.0574 7.67287 95.7552 2.24034 93.7737C0.881262 93.278 -0.18574 93.3017 0.0271575 91.3559C0.247093 89.3446 1.59637 87.0029 3.11757 85.8678C4.73076 84.664 6.91554 84.9062 8.15422 83.139C10.7945 75.4656 12.3398 67.3173 14.6208 59.4833L14.5731 58.6063C13.5081 56.115 11.9389 53.7585 10.9216 51.2592C5.68365 38.3911 13.6418 29.5322 19.1774 19.1193L20.727 18.8543L37.5137 24.1369L54.3088 18.8543C54.9437 18.7027 55.5992 18.7752 56.0547 19.3166C60.8465 29.0646 68.3201 36.8058 64.9469 48.8721C63.9306 52.5073 61.6652 55.5885 60.2787 59.0414L66.449 82.3758C67.7502 85.3021 71.3876 84.4645 73.5482 87.5871C74.2855 88.6525 75.6722 91.9458 74.619 92.9871H74.6185ZM35.8938 27.0828L20.956 22.3766L14.8448 33.341C14.9071 33.6557 18.7405 34.639 19.3586 34.7922C24.7328 36.1233 30.2204 36.5145 35.7311 36.3374L35.8938 27.0828ZM39.1169 27.0555V36.3363C46.2493 36.5958 53.3835 35.7822 60.189 33.4466L54.079 22.3766L39.1169 27.0555ZM39.3039 39.6351C39.0621 44.8158 41.1657 50.0221 44.759 53.3537C47.1482 55.5687 50.3492 56.9422 53.0226 58.7127C54.5722 58.2231 56.3666 57.9448 57.7481 57.0684C61.3299 50.6299 64.6013 44.0146 61.6918 36.3357C54.5124 38.9995 46.8775 39.8795 39.3039 39.6351ZM35.7311 39.6351C29.8291 39.8354 23.9491 39.3392 18.1936 37.9258C17.4302 37.7381 13.675 36.3721 13.3324 36.6319C12.9078 36.9537 12.2588 40.8535 12.2139 41.5982C11.8421 47.7802 14.8707 52.1629 17.3385 57.3213L22.0124 58.7127C25.9728 56.2517 30.0251 54.5162 32.793 50.3381C34.8348 47.2564 35.8432 43.4412 35.7311 39.6351ZM18.231 95.3202C18.7772 92.4506 16.3972 91.4232 15.3739 89.4827C14.4401 87.7119 14.0658 85.5405 14.5577 83.5594L20.2575 61.7972L17.4031 60.8645L11.5945 82.9921C11.0699 84.5238 10.1467 85.946 8.88566 86.8288C6.95551 88.1803 4.01893 87.889 3.36867 90.7829L18.2313 95.3205L18.231 95.3202ZM57.7433 60.8777C57.644 60.7689 55.3441 61.3944 55.0555 61.5415C54.8693 61.6363 54.6966 61.7005 54.7597 61.9716L60.4813 83.7611C60.7133 85.7072 60.6736 87.4595 59.7765 89.1969C58.7294 91.2256 56.1027 92.4184 56.8995 95.3243L71.6664 90.7829C71.084 88.0348 68.3935 88.2161 66.598 87.1619C65.0054 86.2268 63.9221 84.5403 63.3342 82.6962L57.743 60.878L57.7433 60.8777Z" fill="#79283B"/>
<path d="M30.4163 0.0915687C33.6829 -0.390874 35.3037 1.63175 37.3552 3.94147C38.5477 3.17826 39.2361 1.72735 40.428 0.959469C45.3767 -2.22917 51.0114 3.0664 49.0463 8.96289C47.8669 12.502 40.5877 18.0039 38.3727 21.3918C37.7795 21.969 37.0707 21.972 36.4742 21.3918C33.7091 17.6829 29.1978 14.2585 26.6003 10.5615C23.8886 6.70194 26.0071 0.743183 30.4161 0.0918442L30.4163 0.0915687ZM30.7888 3.38821C28.4862 3.8015 27.6094 7.06811 29.2345 8.91137L37.3552 17.7598L37.8052 17.4722C40.045 14.526 43.4873 11.8559 45.6097 8.90834C47.9008 5.72714 44.9748 2.03842 42.0279 3.74474C40.6779 4.5264 39.3824 6.98601 38.2805 7.68005C37.7783 7.99635 37.073 7.99883 36.5665 7.68005C35.6174 7.08299 34.2716 4.80165 33.1589 3.99106C32.3834 3.42596 31.7264 3.21987 30.7888 3.38821Z" fill="#79283B"/>
<path d="M59.956 10.3982C61.3297 10.0089 62.2868 11.3146 61.7402 12.773C61.6617 12.9821 59.1477 15.982 58.9433 16.098C57.5136 16.9097 56.1357 15.5596 56.758 13.9084C56.8292 13.7197 59.0059 11.133 59.2686 10.887C59.4425 10.7242 59.7499 10.4566 59.9563 10.3982H59.956Z" fill="#79283B"/>
<path d="M13.8535 10.3909C14.4047 10.2589 14.7488 10.3479 15.2136 10.6691C15.4966 10.8648 17.6919 13.4842 17.8312 13.7787C18.547 15.2916 17.3561 16.9315 15.9038 16.0975C15.6371 15.9443 13.1263 13.1927 12.9886 12.9025C12.5296 11.9341 12.8254 10.6369 13.8535 10.3909Z" fill="#79283B"/>
<path d="M59.5556 17.6355C60.0706 17.5958 63.2118 18.0131 63.6271 18.2346C64.9623 18.9467 64.7109 21.0829 63.3038 21.2903C62.4794 21.4118 59.4505 21.1049 58.8028 20.6347C57.5918 19.7554 58.188 17.741 59.5556 17.6355Z" fill="#79283B"/>
<path d="M14.976 17.6406C16.5374 17.6938 17.1404 19.933 15.7728 20.7498C15.1921 21.0966 12.0784 21.3963 11.3552 21.2902C10.0188 21.0944 9.78927 18.9893 10.9086 18.3056C11.3509 18.0353 14.385 17.6205 14.976 17.6406Z" fill="#79283B"/>
<path d="M51.8573 10.1889C53.372 9.81442 53.6432 10.9135 54.1205 12.1561C54.5878 13.3728 55.4917 15.5439 54.0195 16.2785C52.4877 17.0428 52.0202 15.5026 51.5821 14.3198C51.144 13.137 50.1154 10.6195 51.8573 10.1889Z" fill="#79283B"/>
<path d="M21.7512 10.1876C22.7853 9.84869 23.8792 10.4604 23.8842 11.6875C23.8862 12.1926 22.8283 15.3834 22.5352 15.7887C21.845 16.7431 20.22 16.5833 19.9666 15.3592C19.763 14.3755 20.8325 10.489 21.751 10.1879L21.7512 10.1876Z" fill="#79283B"/>
<path d="M57.1241 39.8847C59.6108 39.0612 59.9941 43.7087 59.7923 45.4911C59.6166 47.0439 58.2653 50.2676 56.6061 48.4103C55.6635 47.3553 56.772 45.7845 56.8127 44.4895C56.8572 43.0665 55.3983 40.4562 57.1241 39.8847Z" fill="#79283B"/>
<path d="M56.7499 49.7995C57.6812 50.8171 56.7816 52.5333 56.1306 53.4384C55.6206 54.1477 55.3464 54.4127 54.4649 54.2676C51.6914 53.8106 54.7215 47.5826 56.7499 49.7995Z" fill="#79283B"/>
<path d="M29.4699 42.9765C32.5899 42.2304 31.1803 47.3444 30.1679 48.9038C29.3198 50.2101 26.6929 52.6598 25.9014 50.0957C25.3798 48.4062 27.2584 47.9971 27.9112 46.6365C28.5109 45.3865 28.1035 43.3032 29.4699 42.9765Z" fill="#79283B"/>
<path d="M24.9466 50.6328C25.5984 51.2865 25.5107 52.3534 24.9117 53.0409C24.6694 53.3191 22.965 54.4334 22.6382 54.4813C21.078 54.7102 20.2295 52.728 21.3324 51.5933C22.1219 50.781 24.002 49.6855 24.9466 50.6328Z" fill="#79283B"/>
</svg>
