<svg width="78" height="99" viewBox="0 0 78 99" fill="none" xmlns="http://www.w3.org/2000/svg">
<g clip-path="url(#clip0_368_405)">
<path d="M23.4408 0.0631451C26.7503 0.69695 29.8928 3.25548 30.4798 6.61978C30.7802 8.34265 30.7358 12.8259 30.5436 14.6228C30.3373 16.5522 29.3313 18.2394 28.1924 19.7654H31.0629C31.6266 19.7654 33.2348 20.1403 33.842 20.3375C34.8174 20.654 35.679 21.2722 36.6046 21.6907L39.4321 20.3005C41.0628 16.0805 42.1216 11.2964 43.8791 7.15924C45.5963 3.11643 48.5598 0.936101 52.9387 0.0631451C53.7657 0.127595 54.7049 -0.0262622 55.5125 0.0631451C66.3565 1.26219 65.8687 14.2008 69.5232 21.4507C69.7556 21.9117 70.9586 22.8489 71.3956 23.4876C74.218 27.6132 72.3993 34.875 72.9546 39.737L77.8843 59.0778C78.285 59.7206 77.0874 61.1012 76.5962 61.1012H70.1622C71.4574 65.9081 72.3785 70.9039 72.734 75.8798C72.8349 77.2924 72.5671 78.7298 72.9422 80.1195C72.4693 85.507 73.5475 91.8543 72.9338 97.1253C72.8464 97.877 72.6042 98.4488 71.8927 98.8136L37.3937 98.9655C37.0818 98.9318 36.4813 98.7645 36.252 98.5854C35.9016 98.312 36.0685 97.6806 35.6186 97.7999C35.466 97.8405 35.2564 98.8248 34.0371 98.9644L6.72373 98.9491C3.09846 97.419 7.25737 95.0239 8.59327 93.4549V62.6461H1.36718C0.913911 62.6461 0.0899981 61.54 0.269 61.0135C0.8549 50.5402 -0.477636 39.3157 0.269562 28.931C0.408379 27.0011 1.15192 25.1562 2.37374 23.6442C4.94749 20.4593 8.72141 19.5534 12.7497 19.7638L11.0715 16.864C10.1495 14.5732 10.1661 10.1892 10.3678 7.68553C10.6845 3.75874 13.6885 0.925405 17.5018 0.0631451H23.4408ZM21.263 3.34873C19.3634 3.26179 17.1311 3.72309 15.918 5.27647C17.4484 4.73729 19.1294 4.40955 20.6246 3.78617C20.8685 3.68442 21.2088 3.68305 21.263 3.34873ZM60.0637 6.82355C57.7962 1.96538 49.9556 2.34934 48.1883 7.40223C48.4707 7.67758 54.5377 5.09711 55.8089 5.06941C57.1744 5.03979 58.7727 6.36527 60.0637 6.82355ZM21.8085 6.85948L13.7675 9.65085C13.7481 12.0454 13.4131 14.1506 14.5607 16.3575C16.7158 20.5018 22.7049 21.0037 25.7201 17.4499C27.7197 15.0929 27.2342 12.1946 27.106 9.33244L21.8085 6.85948ZM61.023 10.9108L55.6906 8.46113L47.621 11.1C46.8021 16.018 49.8471 20.2807 55.2135 19.7635C59.6818 19.3326 61.666 14.8529 61.023 10.9108ZM46.6034 19.7651C45.7475 18.56 44.8882 17.3522 44.5248 15.9L43.2381 19.7651H46.6037H46.6034ZM65.4109 19.7651L64.1242 15.9C63.8036 16.6123 63.5215 17.3407 63.1376 18.0299C62.7951 18.6451 62.2536 19.1234 62.0453 19.7651H65.4109ZM13.7402 23.0491H10.2757C7.66342 23.0491 3.64361 25.8503 3.64361 28.5542V52.7957H8.59299V31.3549H11.9586V52.7957H28.9843V31.3549H32.3499V37.9222H37.2993V28.3608C37.2993 25.7974 33.1384 23.0491 30.6672 23.0491H27.4997L27.2027 23.3387V30.2924C27.2027 30.4888 26.6117 31.102 26.3616 31.2087C24.6506 31.9391 22.1047 29.0887 20.5383 28.4895C18.9453 29.0073 15.7946 32.605 14.1985 30.9084C14.1277 30.8333 13.7402 30.1452 13.7402 30.0991V23.0491ZM70.8549 57.8176H73.8246L74.0463 57.4188L69.5892 40.1231C68.608 34.5936 72.6747 23.7487 64.1211 23.0518C56.7118 22.4482 48.1183 23.2767 40.6531 23.3274L39.0927 24.0323C39.746 25.7135 40.8116 27.3318 40.6666 29.23C41.1283 28.9947 41.1687 28.4423 41.7041 28.216C42.4451 27.9028 43.2108 28.2177 43.8889 28.0298C44.4048 27.8869 45.7868 26.5327 46.7288 26.1649C50.3203 24.7621 52.1623 26.9369 54.4216 29.1957C57.0476 27.3532 59.3671 24.8054 62.9111 26.3574C64.0214 26.8437 64.2939 27.3579 65.0161 28.1667C65.5498 28.7646 66.0668 28.6543 66.0918 29.8292C66.1534 32.7352 64.5511 36.6453 64.5095 39.6701L70.8555 57.8176H70.8549ZM18.689 25.7508L17.1078 24.5942L17.1069 26.5247L18.689 25.7508ZM23.8359 26.525L23.739 24.5953C23.5917 24.9527 22.3078 25.2917 22.4528 25.6539C22.5304 25.8476 23.7036 26.6744 23.8359 26.5247V26.525ZM47.1994 37.9203L61.2672 37.8388C61.4232 36.1058 62.9201 31.4854 62.2923 30.0514C61.0885 27.3014 56.7132 31.975 55.3821 32.6754C52.52 34.1811 51.176 29.216 48.8554 29.0437C47.9427 28.976 46.3064 30.0914 46.1974 31.0595C45.9818 32.9733 47.2596 35.8955 47.1997 37.9206L47.1994 37.9203ZM44.2278 44.4895V41.4955L43.9308 41.2059H32.3493V44.4895H44.2278ZM61.0553 41.2059H47.5934V44.4895H61.0553V41.2059ZM37.299 47.7732H32.3496V52.7954H37.299V47.7732ZM40.8624 47.7732V52.9885L42.7387 48.9278L43.0431 47.8722L40.8624 47.7732ZM69.5682 95.6766C69.5547 85.618 69.952 75.6187 67.8925 65.7298C66.6075 59.5588 64.4648 53.5019 61.653 47.8662L47.483 47.7622C46.6818 47.8418 46.1903 49.2984 45.8396 50.0218C41.6507 58.6656 39.7477 68.6849 39.0724 78.1879L39.0806 95.6766H69.5682ZM8.59299 56.079H3.6439V59.3627H8.59327L8.59299 56.079ZM28.984 56.079H12.2554L11.9583 56.3687V94.6142C11.9583 94.8492 11.2567 95.3936 11.1665 95.6766H18.8874V61.1012H22.253V95.6766H30.7659C30.6537 95.0357 28.984 93.3408 28.984 92.8759V56.079ZM37.299 56.079H32.3496V59.3627H37.299V56.079ZM37.8928 62.6466H32.3496V91.9103L35.713 96.8348C35.7917 85.3622 35.0332 73.8634 37.8928 62.6466Z" fill="white"/>
<path d="M47.5934 89.1091H44.2278V92.3928H47.5934V89.1091Z" fill="white"/>
<path d="M55.9083 89.1091H52.5427V92.3928H55.9083V89.1091Z" fill="white"/>
<path d="M64.4208 89.1091H61.0552V92.3928H64.4208V89.1091Z" fill="white"/>
<path d="M22.2533 39.6606H18.8877V42.9443H22.2533V39.6606Z" fill="white"/>
<path d="M22.2533 46.228H18.8877V49.5117H22.2533V46.228Z" fill="white"/>
<path d="M22.253 33.093V36.0871L21.956 36.3767H18.8877V33.093H22.253Z" fill="white"/>
</g>
<defs>
<clipPath id="clip0_368_405">
<rect width="78" height="99" fill="white"/>
</clipPath>
</defs>
</svg>
