<svg width="98" height="97" viewBox="0 0 98 97" fill="none" xmlns="http://www.w3.org/2000/svg">
<g clip-path="url(#clip0_368_368)">
<path d="M0.147534 80.4274C0.403252 77.8089 1.7408 74.9487 3.66762 73.1692C4.56647 65.3635 6.84573 56.8621 7.4077 49.0719C7.87856 42.5439 6.38049 37.9645 10.3135 31.9572C17.2835 21.3112 32.5324 20.8908 40.166 31.0839C44.8521 37.3412 43.2175 42.0357 43.7251 49.0717C44.2738 56.6783 46.5937 64.7893 47.2108 72.4695L47.5441 73.2807L49.1674 74.8993C52.6051 70.0982 58.7459 68.9903 64.0943 67.4839L64.5282 67.1542L64.458 63.6552C60.2871 60.9312 55.9667 55.5253 55.565 50.4148C55.2233 46.0676 55.1623 37.8474 56.8204 33.9277C62.9734 19.3812 84.9359 20.694 89.0716 36.0594C89.9247 39.2292 89.8681 46.9759 89.5978 50.4146C89.1989 55.4907 84.8029 61.0023 80.6507 63.6941L80.6346 67.154C80.7737 67.5672 84.953 68.506 85.724 68.7494C91.7512 70.652 97.3076 73.3314 98.0003 80.4264V95.4835C97.5315 96.281 97.0231 96.8289 96.0033 96.8274L34.0668 96.8223C32.4454 96.7414 31.6586 94.7484 32.7433 93.5876C32.8494 93.474 33.6334 93.006 33.6891 93.006H38.1802L38.3726 82.9986C38.1746 81.9623 34.8413 81.2522 33.8777 81.1931C32.3045 81.0966 30.1207 81.4706 28.6859 82.1085C27.6991 82.5472 26.5522 83.8053 25.6459 83.8462C24.5916 83.8939 24.0583 82.9787 23.337 82.5548C20.3866 80.8203 15.5182 80.5866 12.7615 82.8092V93.006H17.4438C17.4994 93.006 18.2834 93.474 18.3896 93.5876C19.4204 94.6909 18.7617 96.5955 17.2404 96.8055C12.4343 96.407 6.64616 97.3794 1.95875 96.8223C0.972112 96.7049 0.628856 96.2609 0.147534 95.4835C0.493851 90.6526 -0.316435 85.1805 0.147534 80.4264V80.4274ZM39.9001 46.6922V40.498C39.9001 33.5853 32.3214 27.467 25.665 27.4272C19.0909 27.388 11.2325 33.4391 11.2325 40.3073V45.5487C12.7056 44.8839 14.3254 43.7567 15.5274 42.6847C16.2953 42 18.2214 39.4637 18.8285 39.3072C20.3633 38.9115 22.3343 40.811 23.7178 41.5789C28.6262 44.3031 34.3868 45.7476 39.9001 46.6922ZM85.7426 40.758C86.0581 30.5917 75.0616 24.3758 66.1464 29.1256C62.7468 30.937 59.6277 35.0427 59.3924 38.9751C59.3561 39.5801 60.5842 39.0762 61.0106 39.0607C67.8063 38.8145 69.2174 41.696 74.6737 42.795C78.508 43.5672 82.2251 42.1274 85.7426 40.758ZM85.7684 44.7864C81.2183 46.7421 76.6712 47.5725 71.8603 45.9818C69.4103 45.1719 66.935 43.3587 64.4103 42.9287C62.7986 42.6542 60.956 42.8179 59.3941 43.2614V50.5994C59.3941 52.8923 62.8351 57.4567 64.5517 58.9882C69.9452 63.8011 75.2145 63.7616 80.6109 58.9882C82.3328 57.4651 85.7684 52.8941 85.7684 50.5994V44.7864ZM37.5968 50.1322C31.3904 49.0567 25.3376 47.0507 19.9239 43.8359C18.8186 44.6308 17.935 45.646 16.8624 46.4939C16.2499 46.9779 13.9533 48.3356 13.7034 48.6803C13.4158 49.0778 13.4758 50.9561 13.5286 51.5494C14.0301 57.1585 20.7689 63.923 26.6183 63.2753C31.7441 62.7075 38.2126 55.4737 37.5968 50.1322ZM8.17562 70.1343L17.2228 67.4371C17.677 67.1687 17.6732 64.6872 17.4456 64.225C17.3259 63.9819 15.7854 62.9484 15.4348 62.6092C13.3145 60.5595 11.4395 57.8653 10.4656 55.0798L8.17562 70.1343ZM42.9569 70.1343L40.7611 55.0792C39.5816 57.8806 37.8923 60.4879 35.6981 62.6092C35.3471 62.9484 33.807 63.9821 33.6873 64.225C33.4594 64.6877 33.4558 67.1675 33.9103 67.4368L42.9572 70.1343H42.9569ZM76.7848 65.7523C73.9112 66.686 71.2511 66.686 68.3775 65.7523L68.4158 67.7139L72.6504 71.4558L76.7442 67.9996L76.7848 65.7523ZM29.7708 66.3234C27.1202 67.3994 24.0218 67.4027 21.3617 66.3234V69.0871C21.3617 69.4919 20.6497 70.2652 20.2659 70.4717C18.1683 71.5997 13.7009 72.2202 11.1335 73.1814C7.94491 74.3753 3.97004 76.8029 3.97004 80.7134V93.0068H8.93921V82.6195C8.93921 82.1617 9.34473 81.0508 9.62138 80.6314C12.2896 76.5824 21.8693 76.6117 25.5055 79.4451C28.9452 76.5485 39.947 76.6455 41.7942 81.1121C41.892 81.3482 42.1939 82.4512 42.1939 82.6195V93.0068H47.163V80.7134C47.163 80.502 46.7126 78.93 46.597 78.6097C44.5528 72.9418 35.7565 72.3078 30.8677 70.4714C30.479 70.3164 29.7713 69.444 29.7713 69.0871V66.3234H29.7708ZM65.8509 70.9308C65.5273 70.9463 63.4275 71.538 63.4121 71.7542L66.1789 77.1838L69.7109 74.043L66.3761 71.0734C66.2177 70.8972 66.061 70.9208 65.8509 70.931V70.9308ZM79.0771 77.1869L81.7506 71.754C81.7379 71.5775 79.622 70.9 79.3609 70.9112C78.6652 70.9407 76.253 73.5862 75.4516 74.0425L79.0768 77.1869H79.0771ZM50.985 80.7134V93.0068H65.8923L56.0767 86.6901C55.4813 86.1727 55.2393 85.3386 55.429 84.575L58.0543 73.1849C54.5232 74.4563 51.4112 76.6916 50.9848 80.7134H50.985ZM94.1778 93.0068V80.7134C94.1778 80.3673 93.6257 78.628 93.4471 78.2018C92.3278 75.5313 89.6356 74.2146 87.1082 73.1847L89.7336 84.5747C89.9232 85.3383 89.6815 86.1725 89.0858 86.6899L79.2703 93.0066H94.1775L94.1778 93.0068ZM67.8015 89.576L61.3077 76.2358L59.4901 84.2503L67.8015 89.576ZM77.3611 89.576L85.6724 84.2503L83.8548 76.2358L77.3611 89.576ZM72.7696 90.3379L77.1643 80.8985C77.1528 80.376 73.1991 77.167 72.5121 76.6295L67.998 80.8987L72.3444 90.0929L72.7696 90.3379Z" fill="#79283B"/>
<path d="M41.1989 0.0524474C44.0817 -0.246734 46.8717 0.746039 49.0065 2.64934C54.4644 -2.10522 62.8209 -0.246225 64.6515 7.04693C66.5018 14.4198 61.8802 17.3192 57.3827 21.719C55.8114 23.2562 54.3199 24.9041 52.708 26.3962C52.2109 26.8563 50.0988 28.8347 49.7032 28.9256C49.0866 29.0675 48.3159 29.028 47.8318 28.5855C44.1596 24.5889 39.16 20.9603 35.691 16.8685C30.8553 11.166 33.2859 0.873351 41.1989 0.0524474ZM41.3829 3.8588C37.5315 4.40267 36.1297 9.4521 37.4586 12.6283C38.2941 14.6253 44.4602 20.2132 46.3957 22.0129C46.7359 22.3291 48.9646 24.4099 49.1433 24.3788L59.7439 14.1631C63.7963 8.7142 58.732 0.532156 52.0692 5.17545C51.1349 5.82652 50.4857 6.9433 49.1397 6.98251C47.7261 7.02376 47.0427 5.84715 46.0787 5.17545C44.6993 4.214 43.0879 3.61793 41.3829 3.8588Z" fill="#79283B"/>
<path d="M76.7848 65.7522L76.7442 67.9992L72.6504 71.4555L68.4157 67.7136L68.3774 65.752C71.2511 66.6857 73.9111 66.6857 76.7848 65.752V65.7522Z" fill="#79283B"/>
<path d="M25.1351 93.0472C27.861 92.5262 28.3013 96.5279 25.8344 96.8138C23.3165 97.1056 22.8847 93.4775 25.1351 93.0472Z" fill="#79283B"/>
</g>
<defs>
<clipPath id="clip0_368_368">
<rect width="98" height="97" fill="white"/>
</clipPath>
</defs>
</svg>
