<svg width="86" height="86" viewBox="0 0 86 86" fill="none" xmlns="http://www.w3.org/2000/svg">
<path d="M18.4405 28.3313C14.5087 25.3986 10.8906 22.0307 8.07771 17.9902C5.4359 14.1955 4.14769 10.0984 6.73866 5.81676C10.2461 0.0211673 17.1108 1.24129 22.5508 3.18212C30.0774 5.86738 35.1507 11.5691 38.0122 18.902C38.2738 19.5721 38.4299 20.4394 38.7092 21.0549C38.7985 21.2517 38.6292 21.3577 39.0588 21.2907C41.0869 13.4128 46.6727 6.59188 54.2714 3.55971C59.8363 1.33916 67.3633 -0.266171 71.0467 5.81676C74.2697 11.1391 71.4689 15.9715 68.0578 20.1958C65.5501 23.3014 62.511 25.9233 59.3451 28.3311H74.349C75.1586 28.3311 76.2685 29.6596 76.4043 30.4667C76.6782 32.0969 76.6302 37.5821 76.445 39.312C76.2959 40.7057 75.172 41.7536 73.7622 41.7424V47.2746C79.5567 46.179 83.9718 50.2707 84.4697 55.9297C85.1359 63.5019 78.3128 67.122 73.8491 71.921C73.4247 74.8571 74.1253 78.3345 73.7479 81.2076C73.5165 82.9691 71.7874 84.5961 69.9973 84.6655L7.33282 84.6181C5.6117 84.2371 4.25631 82.8125 4.02227 81.0553L4.0328 41.8391C2.49084 41.5672 1.47855 40.7861 1.3341 39.1507C1.1724 37.3194 1.09491 32.1695 1.38113 30.4667C1.51685 29.6596 2.62679 28.3311 3.4364 28.3311H18.4403L18.4405 28.3313ZM37.5517 28.3313C36.7697 21.0858 33.8846 13.6961 27.9818 9.15061C23.6395 5.80691 12.2335 0.964704 8.81991 7.56252C6.52433 11.9994 9.66356 15.9289 12.41 19.1902C15.9575 23.4026 21.0256 28.1342 26.8226 28.3295C22.6444 24.8154 19.0411 20.6515 15.9568 16.1464C14.4816 13.9917 11.7723 10.9882 14.7479 8.79653C16.3675 7.6035 18.7307 8.6299 20.4496 9.3067C28.4071 12.4399 33.2938 20.0975 34.7019 28.3313H37.5517ZM40.2339 28.3313H43.0837C44.4064 20.6464 48.8182 13.2343 56.0464 9.86123C58.0612 8.92105 61.6546 7.28951 63.4763 9.11231C65.7282 11.3658 63.1874 14.1619 61.8288 16.1464C58.7445 20.6518 55.141 24.8156 50.963 28.3295C57.1076 28.0771 62.4198 22.892 66.0462 18.3519C68.5619 15.2022 71.1175 11.7196 68.9657 7.56252C65.5593 0.981277 54.1397 5.79325 49.8038 9.15061C43.9209 13.7059 40.985 21.0741 40.2339 28.3313ZM31.8507 27.9954C30.6973 20.7147 25.9317 14.0643 18.8622 11.5647C18.1695 11.3196 15.6294 10.2444 16.2242 11.6865C16.8309 13.1577 19.537 16.6053 20.6268 18.0144C23.5767 21.8289 27.2855 26.2111 31.8507 27.9954ZM45.9347 27.9954C50.2273 26.3591 53.6723 22.3809 56.4881 18.8525C57.7317 17.2942 60.8808 13.3348 61.5612 11.6863C61.67 11.4224 61.8123 11.203 61.5305 10.9716C60.9059 10.5459 56.8502 12.4356 56.0473 12.8795C50.5525 15.9177 46.9047 21.858 45.9347 27.9954ZM25.4815 31.0136H4.02339V39.0605H19.4463C20.6339 35.8357 23.1653 33.4333 25.4815 31.0136ZM34.8694 31.0136H29.9239C29.7092 31.0136 26.9368 33.3437 26.5668 33.6915C19.5206 40.3093 18.4817 48.3928 22.4343 57.1115C22.9523 58.2544 23.5962 59.6489 24.4739 60.5186C24.7162 59.0942 25.0305 53.7712 25.8123 52.8863C27.1258 51.3997 28.3697 53.753 29.257 54.4798C30.8019 55.7449 32.8813 56.5386 34.8685 56.6618C34.2902 55.4043 33.4654 54.2963 32.8815 53.0346C29.446 45.611 30.6711 37.8081 34.8694 31.0136ZM44.2573 31.0136H38.0545C32.8703 38.2199 31.8224 46.5691 36.6438 54.3015C37.9618 56.4152 41.172 59.0767 36.3012 59.352C35.3684 59.4046 34.4445 59.315 33.5283 59.1773V81.9765H44.2573V31.0136ZM73.7622 31.0136H46.9396V39.0605H73.7622V31.0136ZM18.273 41.7426H6.70574V81.0544C6.70574 81.2517 7.43114 81.9765 7.62778 81.9765H30.8462V58.5905L27.6629 56.6629L26.636 65.277C25.1769 66.9162 24.0824 65.0029 23.2368 63.8529C18.7453 57.7444 16.022 49.2295 18.273 41.7426ZM71.0799 41.7426H46.9396V81.9765H70.1581C70.3554 81.9765 71.0801 81.2511 71.0801 81.0544V74.6002C69.6199 75.4152 68.0258 78.9338 66.1347 77.6178L52.477 64.4529C44.3549 54.7947 55.0138 40.7984 65.1244 50.1292C65.833 50.7831 66.3891 51.5461 66.9749 52.3036L67.2287 52.2243C68.3079 50.8028 69.6353 49.5623 71.0803 48.5319V41.7424L71.0799 41.7426ZM57.4605 49.8326C51.6486 50.621 51.1283 58.655 54.4792 62.6182C57.83 66.5814 62.7592 70.0189 66.2166 74.015L67.2276 74.537L76.8681 65.3843C77.714 64.3915 78.8969 63.5223 79.7157 62.532C85.5621 55.4609 78.0674 44.7795 70.5724 52.3828C69.8521 53.1134 68.1715 55.7879 67.4406 55.9561C66.6847 56.1301 66.4601 55.9953 65.9651 55.4909C63.4599 52.9369 62.0418 49.2112 57.4605 49.8326Z" fill="#79283B"/>
<path d="M18.273 41.7427C16.022 49.2296 18.7453 57.7445 23.2368 63.853C24.0825 65.003 25.177 66.9163 26.6361 65.2771L27.6629 56.663L30.8463 58.5906V81.9766H7.6276C7.43097 81.9766 6.70557 81.2518 6.70557 81.0545V41.7427H18.2728H18.273Z" fill="white"/>
<path d="M71.0799 41.7427V48.5322C69.6349 49.5626 68.3073 50.8031 67.2283 52.2246L66.9745 52.3039C66.3889 51.5465 65.8328 50.7834 65.124 50.1295C55.0134 40.7987 44.3545 54.7952 52.4766 64.4532L66.1342 77.6181C68.0253 78.9341 69.6195 75.4153 71.0797 74.6005V81.0548C71.0797 81.2514 70.3549 81.9768 70.1576 81.9768H46.9392V41.7429H71.0795L71.0799 41.7427Z" fill="white"/>
<path d="M44.2573 31.0137V81.9767H33.5283V59.1775C34.4445 59.3153 35.3686 59.4049 36.3012 59.3522C41.172 59.0772 37.9618 56.4155 36.6438 54.3018C31.8224 46.5691 32.8703 38.2202 38.0545 31.0139H44.2573V31.0137Z" fill="white"/>
<path d="M57.4605 49.8327C62.0416 49.2112 63.4597 52.937 65.9651 55.491C66.4598 55.9954 66.6847 56.1302 67.4405 55.9562C68.1715 55.788 69.8523 53.1135 70.5724 52.3829C78.0674 44.7795 85.5621 55.461 79.7157 62.5321C78.8969 63.5222 77.7139 64.3916 76.8681 65.3844L67.2275 74.5371L66.2166 74.0151C62.7594 70.019 57.8432 66.5971 54.4792 62.6183C51.1151 58.6394 51.6486 50.6211 57.4605 49.8327Z" fill="white"/>
<path d="M37.5518 28.3314H34.7019C33.2941 20.0975 28.4074 12.4399 20.4497 9.30677C18.7308 8.62997 16.3676 7.60357 14.7479 8.79659C11.7724 10.9885 14.4816 13.9918 15.9569 16.1465C19.0412 20.6516 22.6445 24.8157 26.8226 28.3296C21.0257 28.1341 15.9575 23.4027 12.41 19.1903C9.66362 15.929 6.5244 11.9992 8.81997 7.56258C12.2335 0.964771 23.6395 5.80697 27.9818 9.15067C33.8847 13.6961 36.7697 21.0859 37.5518 28.3314Z" fill="white"/>
<path d="M40.2339 28.3314C40.985 21.0743 43.9209 13.7063 49.8039 9.15075C54.1397 5.79317 65.5593 0.981424 68.9657 7.56266C71.1173 11.7198 68.5619 15.2026 66.0462 18.3521C62.4199 22.8922 57.1076 28.0772 50.9631 28.3296C55.1412 24.8155 58.7447 20.6517 61.8288 16.1465C63.1874 14.1618 65.7282 11.3657 63.4763 9.11245C61.6546 7.28966 58.0612 8.92097 56.0465 9.86137C48.8182 13.2344 44.4065 20.6465 43.0838 28.3314H40.2339Z" fill="white"/>
<path d="M34.8695 31.0137C30.6712 37.8081 29.4461 45.6113 32.8816 53.0346C33.4655 54.2964 34.2903 55.4043 34.8686 56.6618C32.8814 56.5384 30.802 55.7449 29.2571 54.4798C28.3698 53.7531 27.1259 51.3997 25.8124 52.8863C25.0306 53.7712 24.7163 59.0942 24.474 60.5186C23.5963 59.649 22.9524 58.2544 22.4344 57.1115C18.4818 48.3931 19.5207 40.3093 26.5669 33.6915C26.9371 33.344 29.7095 31.0137 29.924 31.0137H34.8695Z" fill="white"/>
<path d="M73.7623 31.0137H46.9397V39.0605H73.7623V31.0137Z" fill="white"/>
<path d="M25.4816 31.0137C23.1654 33.4333 20.634 35.8357 19.4466 39.0605H4.02344V31.0137H25.4816Z" fill="white"/>
</svg>
