<svg width="58" height="55" viewBox="0 0 58 55" fill="none" xmlns="http://www.w3.org/2000/svg">
<g clip-path="url(#clip0_142_7)">
<path d="M23.7493 45.4303C22.3471 45.8844 20.9483 46.5232 19.4593 46.8011C11.616 48.2617 4.39045 44.7104 1.55878 37.0639C-2.79424 25.3101 2.30243 9.67004 12.7255 2.93855C19.74 -1.59169 29.5624 -1.13073 34.6659 6.06345C35.8214 7.69324 36.3081 9.3282 37.0415 11.1634C47.9207 14.5956 57.2853 26.0576 57.9711 37.7096C58.3591 44.296 54.6374 51.283 48.4312 53.6673C38.9355 57.3136 29.7054 53.1338 23.7476 45.432L23.7493 45.4303ZM29.8943 3.33046C27.4829 1.91821 24.9916 1.20863 22.1752 1.38819C7.94706 2.29458 -0.697715 22.4856 2.77381 35.0525C4.27644 40.4892 8.70093 45.2059 14.4511 45.6686C8.45758 41.2678 7.35146 32.6735 8.48992 25.702C10.0708 16.0321 18.1898 1.56428 29.5063 3.39952C29.6407 3.42196 29.9232 3.57216 29.8926 3.33046H29.8943ZM33.0407 6.86971C31.579 5.40049 29.5471 4.4941 27.4693 4.49582C33.9852 12.7224 32.161 24.9095 27.4931 33.5868C27.7211 34.141 30.09 37.7786 30.3418 37.77C35.4079 31.0523 38.2906 21.1044 36.1124 12.7535C35.5967 10.775 34.4821 8.31994 33.0407 6.86971ZM19.6737 39.4412C18.0162 35.8484 16.4489 32.0312 16.2328 28.0016C15.8737 21.3271 19.4184 14.2797 25.56 11.5553C26.4755 11.1496 27.4625 10.9476 28.3593 10.5022C28.5159 9.99289 25.6706 4.91363 25.0835 4.77206C24.1867 4.55798 20.5688 6.94568 19.7537 7.60519C11.9597 13.912 7.31913 27.924 10.4605 37.6146C10.7175 38.4088 11.9325 41.3231 12.4771 41.784C12.6915 41.967 13.4419 42.0413 13.7466 42.0499C16.1545 42.1172 17.812 40.7171 19.6771 39.4395L19.6737 39.4412ZM29.1285 12.5222C27.3604 12.9935 25.8509 14.442 24.9184 16.0165C26.5146 15.6522 28.1449 15.6281 29.7683 15.7576L29.1302 12.5204L29.1285 12.5222ZM52.74 46.7044C55.1088 45.5961 56.368 42.9805 56.5671 40.4236C56.9602 35.3771 55.2789 29.8541 52.6651 25.6105C49.1884 19.9667 43.8297 14.9496 37.5537 12.7811C37.872 14.7458 38.2021 16.7088 38.2174 18.7115C44.8967 22.7152 50.5839 29.2361 52.5766 36.9672C53.3679 40.0368 53.909 43.6866 52.74 46.7044ZM25.2996 13.3008C22.57 14.4782 20.5722 16.9695 19.4065 19.687C14.1907 31.8396 24.8163 46.8322 35.5916 51.7388C41.7553 54.5443 49.5952 53.8365 53.6334 47.8733C47.7335 50.6287 40.5879 48.2272 35.5457 44.6638C29.2527 40.2147 23.2371 31.4339 22.3658 23.5923C21.9472 19.8182 22.536 16.0355 25.2996 13.3008ZM29.896 17.7016C29.1012 17.7326 24.299 17.5703 24.0199 18.052C22.9308 22.4217 24.1254 26.9347 25.9394 30.9107C26.1726 30.9643 26.1896 30.8382 26.2985 30.6949C26.5963 30.3082 27.0336 29.4415 27.2804 28.9719C29.091 25.5207 30.0168 21.6275 29.8943 17.7033L29.896 17.7016ZM38.0642 21.0699C37.4891 27.4578 35.1305 33.8509 31.1944 38.8749C35.3279 43.6244 41.4167 47.4865 47.822 47.749C49.3705 47.8128 49.83 47.8163 50.6247 46.4386C53.0786 42.1794 49.7721 34.1703 47.3829 30.3255C45.1554 26.7413 41.82 22.9863 38.0642 21.0699ZM20.9585 41.399C20.8615 41.3282 19.4133 42.4608 19.1632 42.6179C17.8971 43.4121 16.5731 44.0526 15.0909 44.3116C17.3338 45.8775 20.4956 45.5736 22.7453 44.1838L20.9585 41.4007V41.399Z" fill="black"/>
</g>
<defs>
<clipPath id="clip0_142_7">
<rect width="58" height="55" fill="white"/>
</clipPath>
</defs>
</svg>
