<svg width="57" height="57" viewBox="0 0 57 57" fill="none" xmlns="http://www.w3.org/2000/svg">
<g clip-path="url(#clip0_40_191)">
<path d="M0 26.7189C0.731937 24.6521 2.66495 24.323 4.55607 25.047C5.66252 14.8329 13.4317 6.0267 23.575 4.11884C22.2271 0.590018 25.7357 -1.07646 28.5243 0.775182C30.1177 -0.341305 32.6173 -0.41076 33.4565 1.62946C33.8699 2.635 33.5975 3.13606 33.3595 4.11884C43.4948 6.02506 51.2675 14.8277 52.3784 25.047C53.6092 24.6415 54.9608 24.4235 56.0362 25.3359C56.9681 26.1266 57.211 27.505 56.6212 28.5762L52.4863 33.0089V52.1014H56.4339C56.7764 52.1014 56.9137 52.6536 56.9394 52.9313C56.9993 53.5787 57.0416 55.8205 56.9321 56.3852C56.8768 56.6701 56.6031 56.7585 56.4896 56.9999H0V52.5467C0.180942 52.3105 0.308997 52.1588 0.61844 52.1081C1.73974 51.9241 3.27879 52.2307 4.44792 52.1014V33.0089L0.66984 29.1097L0 27.8322V26.7189ZM28.5763 6.90195C28.5894 6.77092 28.6482 6.66072 28.7384 6.56657C29.6073 5.65875 31.1925 4.30698 31.8512 3.33282C32.8393 1.87144 30.9903 1.05464 29.6527 1.91115C29.1499 2.23314 29.1356 2.71383 28.4092 2.68334C27.8047 2.65805 27.7672 2.24534 27.348 1.95607C26.1373 1.12052 24.2017 1.60359 25.0387 3.26605L28.3468 6.83175L28.5761 6.9021L28.5763 6.90195ZM6.22792 24.9374C6.46042 24.8444 7.15848 24.7494 7.28267 24.6029C7.49303 24.3548 8.09483 22.5621 8.32034 22.0793C9.10754 20.3935 10.5805 17.2878 11.7365 15.9252C12.3649 15.1845 13.349 15.6839 13.0698 16.703C12.881 17.3922 11.4027 19.4196 10.9508 20.2596C10.5846 20.94 10.1963 21.7106 9.87721 22.4133C9.67116 22.8669 8.9627 24.3193 8.91204 24.6869C8.89941 24.7788 8.87535 24.8584 8.9465 24.9371L10.0868 25.925C18.0086 22.5734 23.9725 15.1882 26.0177 6.83175C26.0245 6.61476 25.2871 5.68046 25.0816 5.56178C24.6706 5.32397 23.3168 5.71303 22.7952 5.84451C14.0617 8.04536 7.06653 15.9086 6.22792 24.9374ZM50.7064 24.9374C49.8763 16.1743 43.3117 8.51786 34.9164 6.06819C34.2297 5.86786 33.0756 5.51538 32.3977 5.46481C32.1511 5.44652 32.0789 5.4306 31.8525 5.56163C31.7769 5.60536 31 6.50054 30.9669 6.57252C30.8311 6.867 31.2402 8.01561 31.3561 8.40795C33.6122 16.0477 39.5281 22.8384 46.8475 25.925C47.0932 25.6227 48.0646 24.9946 48.0223 24.6871C47.9716 24.3193 47.2632 22.8671 47.0571 22.4135C46.738 21.7107 46.3497 20.9403 45.9835 20.2598C45.5741 19.4989 43.9878 17.2741 43.8401 16.729C43.556 15.6802 44.569 15.1836 45.1979 15.9253C46.3228 17.2518 47.8433 20.4287 48.6141 22.0794C48.8612 22.6086 49.395 24.2928 49.654 24.6009C49.818 24.7959 50.4453 24.8504 50.7066 24.9377L50.7064 24.9374ZM36.5848 52.1016C36.8327 43.4378 41.0874 35.1293 48.0364 30.0033C48.0386 29.9206 47.0849 28.9794 46.9444 28.7605C46.7204 28.4115 46.6418 27.7298 46.4809 27.5546C46.3687 27.4324 43.9697 26.333 43.5156 26.0702C36.792 22.1792 31.7093 15.638 29.6358 8.12611C29.4835 7.90005 29.171 8.44335 28.9183 8.52262C28.2878 8.72042 27.8005 8.5131 27.4107 8.01829C26.978 9.01208 26.7018 10.1063 26.2971 11.1317C23.8063 17.445 19.0831 22.8429 13.1964 26.1817C12.77 26.4236 10.5572 27.4416 10.4533 27.5546C10.2924 27.7298 10.2138 28.4115 9.98982 28.7605C9.84928 28.9794 8.89555 29.9204 8.89778 30.0033C15.8456 35.1251 20.0974 43.4436 20.3494 52.1016H36.5848ZM2.30277 26.2976C1.60292 26.457 1.3532 27.3623 1.73261 27.9346L5.1861 31.4981C5.33258 31.5237 6.07833 30.723 6.23015 30.5628C6.71905 30.047 8.51554 28.2725 8.71713 27.8209C9.32859 26.4508 7.87437 26.0012 6.75129 26.4087C6.18573 26.6139 5.68733 27.3708 5.28296 27.3976C4.65546 27.4392 4.5121 26.9484 4.10728 26.6705C3.61319 26.3314 2.89209 26.1633 2.30277 26.2976ZM48.7887 26.3013C47.792 26.5543 48.0305 27.6364 48.5378 28.2786C49.3828 29.3483 50.7566 30.4326 51.6677 31.498L51.9336 31.3427C52.7999 30.2858 54.3429 29.1396 55.1043 28.0593C56.1712 26.5452 54.1932 25.7174 52.8272 26.6702C52.4237 26.9517 52.2752 27.4388 51.6517 27.3974C51.2403 27.3701 51.1172 27.0009 50.8088 26.7844C50.2039 26.3599 49.5486 26.1084 48.7889 26.3012L48.7887 26.3013ZM18.7928 52.1016C18.5758 45.577 15.9875 39.2203 11.5678 34.4533C11.1202 33.9705 8.14103 31.1122 7.74468 31.1895L6.00494 33.009V52.1016H15.0122C15.1795 49.4761 14.728 47.1782 13.5134 44.8629C13.138 44.1474 11.8291 42.381 11.7018 41.7785C11.5303 40.9676 12.1446 40.4235 12.8518 40.85C13.0783 40.9867 14.873 44.0336 15.1037 44.4953C16.2947 46.8798 16.7139 49.4374 16.5691 52.1014H18.7931L18.7928 52.1016ZM50.9295 52.1016V33.009L49.1898 31.1897C48.9846 31.1496 47.1079 32.7373 46.8136 33.0074C41.5438 37.8448 38.367 44.927 38.1415 52.1016H40.3656C40.2207 49.4374 40.6398 46.88 41.8309 44.4954C42.0615 44.0338 43.8563 40.9867 44.0829 40.8502C44.7902 40.4235 45.4044 40.9678 45.2329 41.7787C45.1054 42.3811 43.7966 44.1474 43.4212 44.8631C42.2066 47.1783 41.7552 49.4763 41.9224 52.1017H50.9297L50.9295 52.1016ZM55.3776 53.6601H1.55687V55.4414H55.3776V53.6601Z" fill="black"/>
<path d="M0 27.8323L0.66984 29.1098L4.44792 33.009V52.1015C3.27879 52.2308 1.73974 51.9243 0.61844 52.1082C0.308997 52.159 0.180942 52.3106 0 52.5468V27.8323Z" fill="white"/>
</g>
<defs>
<clipPath id="clip0_40_191">
<rect width="57" height="57" fill="white"/>
</clipPath>
</defs>
</svg>
