<svg width="71" height="71" viewBox="0 0 71 71" fill="none" xmlns="http://www.w3.org/2000/svg">
<g clip-path="url(#clip0_116_65)">
<path d="M0 33.2815C0.911711 30.707 3.3195 30.297 5.67511 31.1989C7.05331 18.4761 16.7307 7.50694 29.3653 5.13049C27.6864 0.734935 32.0568 -1.34085 35.5303 0.965577C37.515 -0.425134 40.6286 -0.511648 41.6739 2.02968C42.1889 3.28219 41.8495 3.90632 41.5531 5.13049C54.1777 7.5049 63.8595 18.4696 65.2433 31.1989C66.7764 30.6939 68.4599 30.4223 69.7994 31.5588C70.9602 32.5436 71.2628 34.2606 70.5281 35.595L65.3776 41.1163V64.8983H70.2948C70.7215 64.8983 70.8925 65.5861 70.9245 65.932C70.9991 66.7384 71.0518 69.5308 70.9154 70.2342C70.8466 70.5891 70.5056 70.6992 70.3642 70.9998H0V65.4529C0.225383 65.1587 0.384891 64.9698 0.770337 64.9066C2.16705 64.6775 4.0841 65.0593 5.5404 64.8983V41.1163L0.834362 36.2595L0 34.6681V33.2815ZM35.595 8.59717C35.6113 8.43396 35.6846 8.29668 35.7969 8.17942C36.8792 7.04862 38.8538 5.36483 39.6743 4.15141C40.905 2.33109 38.602 1.31367 36.9358 2.38056C36.3095 2.78163 36.2917 3.38038 35.3868 3.3424C34.6339 3.31091 34.5873 2.79683 34.0651 2.4365C32.557 1.39574 30.146 1.99745 31.1886 4.06823L35.3091 8.50973L35.5948 8.59735L35.595 8.59717ZM7.75759 31.0623C8.04718 30.9465 8.9167 30.8282 9.0714 30.6457C9.33342 30.3367 10.083 28.1036 10.3639 27.5023C11.3445 25.4024 13.1792 21.5339 14.6192 19.8366C15.4019 18.914 16.6277 19.5361 16.28 20.8055C16.0448 21.664 14.2034 24.1894 13.6405 25.2357C13.1844 26.0832 12.7007 27.043 12.3032 27.9184C12.0465 28.4834 11.1641 30.2924 11.101 30.7504C11.0852 30.8648 11.0553 30.964 11.1439 31.062L12.5643 32.2926C22.4317 28.1177 29.8605 18.9187 32.408 8.50973C32.4165 8.23944 31.498 7.07567 31.2421 6.92783C30.73 6.63161 29.0437 7.11624 28.394 7.28C17.5155 10.0214 8.80216 19.816 7.75759 31.0623ZM63.1606 31.0623C62.1266 20.1469 53.9497 10.61 43.4923 7.55863C42.637 7.30909 41.1994 6.87003 40.3551 6.80705C40.0479 6.78426 39.958 6.76444 39.676 6.92765C39.5818 6.98211 38.614 8.09716 38.5727 8.18683C38.4036 8.55363 38.9132 9.98436 39.0576 10.4731C41.8678 19.9893 49.2368 28.4478 58.3539 32.2926C58.66 31.916 59.87 31.1337 59.8173 30.7505C59.7542 30.2924 58.8717 28.4836 58.615 27.9185C58.2175 27.0432 57.7338 26.0836 57.2777 25.2359C56.7677 24.2881 54.7918 21.5169 54.6079 20.8379C54.2539 19.5315 55.5157 18.9129 56.2992 19.8368C57.7003 21.4891 59.5943 25.4463 60.5545 27.5025C60.8622 28.1616 61.5271 30.2594 61.8498 30.6433C62.0541 30.8861 62.8353 30.954 63.1608 31.0627L63.1606 31.0623ZM45.5705 64.8985C45.8794 54.1068 51.179 43.7575 59.8348 37.3725C59.8376 37.2695 58.6496 36.0972 58.4746 35.8245C58.1955 35.3897 58.0976 34.5407 57.8972 34.3224C57.7575 34.1702 54.7693 32.8008 54.2036 32.4734C45.8287 27.6268 39.4976 19.4789 36.9148 10.122C36.7251 9.84042 36.3358 10.5172 36.021 10.6159C35.2357 10.8623 34.6287 10.604 34.1432 9.98769C33.6041 11.2256 33.2601 12.5885 32.7561 13.8658C29.6535 21.7297 23.7702 28.4534 16.4376 32.6124C15.9065 32.9136 13.1501 34.1817 13.0208 34.3224C12.8204 34.5407 12.7225 35.3897 12.4435 35.8245C12.2684 36.0972 11.0804 37.2693 11.0832 37.3725C19.7375 43.7523 25.0336 54.114 25.3475 64.8985H45.5705ZM2.86836 32.7567C1.99662 32.9553 1.68556 34.0829 2.15817 34.7958L6.45988 39.2345C6.64233 39.2664 7.57125 38.2689 7.76037 38.0694C8.36935 37.427 10.6071 35.2167 10.8582 34.6541C11.6198 32.9475 9.80843 32.3875 8.4095 32.8951C7.70504 33.1507 7.08422 34.0935 6.58053 34.1268C5.7989 34.1787 5.62033 33.5674 5.11609 33.2211C4.50064 32.7987 3.60243 32.5894 2.86836 32.7567ZM60.7719 32.7613C59.5304 33.0764 59.8274 34.4243 60.4594 35.2243C61.5119 36.5566 63.2232 37.9073 64.358 39.2343L64.6893 39.0409C65.7683 37.7245 67.6903 36.2967 68.6387 34.951C69.9676 33.0651 67.5038 32.034 65.8023 33.2207C65.2997 33.5714 65.1147 34.1781 64.3381 34.1266C63.8257 34.0925 63.6723 33.6327 63.2881 33.363C62.5346 32.8343 61.7184 32.521 60.7721 32.7611L60.7719 32.7613ZM23.4086 64.8985C23.1382 56.7713 19.9142 48.8533 14.409 42.9155C13.8515 42.3142 10.1406 38.7538 9.64689 38.8501L7.47984 41.1165V64.8985H18.6994C18.9078 61.6281 18.3454 58.7658 16.8325 55.8819C16.3649 54.9906 14.7345 52.7904 14.5759 52.0399C14.3624 51.0299 15.1275 50.352 16.0083 50.8833C16.2905 51.0536 18.526 54.8489 18.8134 55.424C20.2969 58.3941 20.8191 61.58 20.6387 64.8983H23.409L23.4086 64.8985ZM63.4386 64.8985V41.1165L61.2715 38.8503C61.016 38.8004 58.6783 40.778 58.3117 41.1145C51.7475 47.1401 47.7905 55.9617 47.5096 64.8985H50.2799C50.0995 61.58 50.6215 58.3943 52.1052 55.4241C52.3924 54.8491 54.6281 51.0536 54.9103 50.8835C55.7913 50.352 56.5564 51.0301 56.3427 52.0401C56.1839 52.7905 54.5537 54.9906 54.0861 55.8821C52.5732 58.766 52.0108 61.6283 52.2192 64.8986H63.4387L63.4386 64.8985ZM68.9791 66.8398H1.93926V69.0586H68.9791V66.8398Z" fill="#79283B"/>
</g>
<defs>
<clipPath id="clip0_116_65">
<rect width="71" height="71" fill="white"/>
</clipPath>
</defs>
</svg>
