<svg width="58" height="59" viewBox="0 0 58 59" fill="none" xmlns="http://www.w3.org/2000/svg">
<g clip-path="url(#clip0_116_51)">
<path d="M27.2778 0.0507342C50.7869 -1.32079 66.1069 25.0009 53.4376 45.3733C42.4106 63.1062 17.0155 63.617 5.2255 46.4065C-7.72774 27.4976 4.82056 1.36148 27.2778 0.0507342ZM27.3972 2.0185C6.32255 3.28325 -5.40458 27.8803 6.96626 45.4932C18.4078 61.7823 42.5219 60.6341 52.3954 43.33C63.219 24.3669 48.7832 0.73403 27.3972 2.0185Z" fill="black"/>
<path d="M17.3995 5.91624V18.3963C17.3995 20.617 20.1389 21.775 20.8391 23.6228C21.4683 25.2851 21.0553 27.6963 21.0165 29.4555C20.9085 34.4258 20.7826 39.3715 20.6648 44.3418C20.631 45.7297 20.3712 47.2425 20.5358 48.6436C20.752 50.4701 23.4994 50.7066 24.0689 48.9146C24.0286 42.1901 23.6253 35.4524 23.4413 28.7163C23.3962 27.0738 23.0187 25.2079 23.6188 23.6212C24.319 21.7733 27.0584 20.6153 27.0584 18.3946V5.91624H28.9911V10.834C30.627 10.7913 32.2177 11.1543 33.8117 11.4385C34.044 8.59851 35.446 5.61566 38.7129 5.91624C44.0255 6.40736 42.188 13.2847 42.5413 16.8933C48.9187 23.9398 48.9138 35.1009 42.5413 42.1474C42.3477 44.2367 42.7171 46.5789 42.5155 48.637C42.1444 52.4428 37.1286 53.4447 35.4137 50.0923C35.3492 49.9659 35.0297 49.1824 35.0297 49.1298V47.2245C32.1306 48.0704 29.0944 48.5451 26.0936 47.962C26.3453 51.4409 22.2459 53.5417 19.7049 51.0844C17.9674 49.4025 18.8466 47.0421 18.5466 44.8871C9.4943 38.6208 7.92778 25.0847 15.4668 16.9163V5.91624H17.3995ZM34.7893 31.4906H37.3852C38.0031 31.4906 38.0676 32.5976 38.0547 33.0329C37.9143 37.7322 37.1125 42.4677 36.9641 47.1686C36.9334 48.1361 36.7769 49.0756 37.5755 49.7392C38.7855 50.7428 40.4521 49.9182 40.586 48.3972V9.91254C40.202 7.42574 36.9141 7.11037 36.151 9.5791C35.1685 12.7558 35.1814 16.8063 34.7845 20.1127L34.7893 31.4906ZM28.9927 12.8018V18.5194C28.9927 19.6709 27.8457 21.7437 27.0664 22.5831C26.668 23.0134 26.0355 23.3469 25.679 23.8758C24.8804 25.0617 25.337 27.2282 25.3741 28.5964C25.4886 32.7471 25.6774 36.8748 25.8565 41.014C25.9274 42.6303 25.8678 44.2662 26.0242 45.8841C29.0202 46.6414 32.35 46.2127 35.1604 44.9643L35.9945 33.4567H33.5181C33.1196 33.4567 32.8792 32.7701 32.8485 32.417C32.5017 28.5094 33.1244 24.0762 32.8485 20.1111L33.4648 13.49C33.3954 13.242 29.5413 12.6934 28.9895 12.8001L28.9927 12.8018ZM18.7273 42.5564C18.9128 38.1527 18.9838 33.7491 19.0854 29.3339C19.1209 27.8113 19.6226 25.0732 18.7273 23.8068C18.3804 23.314 17.7722 22.9904 17.3931 22.5831C16.6429 21.775 16.0718 20.7533 15.7685 19.6889C10.5026 26.6911 11.9401 37.1688 18.7256 42.5564H18.7273ZM42.5187 38.8672C46.381 33.5224 46.3858 25.5331 42.5187 20.1784V38.8672Z" fill="black"/>
<path d="M8.52307 14.781L10.0105 15.9357C7.68093 19.3752 6.24024 23.3813 5.8708 27.5632L4.19296 27.5386L4.01227 27.3546C4.29782 22.8886 5.9079 18.3798 8.52307 14.781Z" fill="black"/>
<path d="M21.265 5.91626H19.3323V16.7357H21.265V5.91626Z" fill="black"/>
<path d="M25.1288 5.91626H23.1961V16.7357H25.1288V5.91626Z" fill="black"/>
<path d="M11.5593 11.2119L12.929 12.4947C12.5838 12.6853 11.5464 14.1882 11.3173 14.1455L9.91376 12.8627L11.5577 11.2119H11.5593Z" fill="black"/>
</g>
<defs>
<clipPath id="clip0_116_51">
<rect width="58" height="59" fill="white"/>
</clipPath>
</defs>
</svg>
