<svg width="412" height="95" viewBox="0 0 412 95" fill="none" xmlns="http://www.w3.org/2000/svg">
<path d="M183.685 36.16C183.685 35.3493 183.621 34.7307 183.493 34.304C183.407 33.8773 183.109 33.5787 182.597 33.408C182.127 33.1947 181.423 33.088 180.485 33.088C179.546 33.088 178.245 33.1093 176.581 33.152V30.4L189.189 26.56H192.133V65.408C192.133 66.2187 192.197 66.8373 192.325 67.264C192.453 67.6907 192.751 68.032 193.221 68.288C193.733 68.544 194.437 68.736 195.333 68.864C196.271 68.9493 197.551 69.0773 199.173 69.248V72H176.581V69.248C178.202 69.0773 179.482 68.9493 180.421 68.864C181.359 68.736 182.063 68.544 182.533 68.288C183.045 68.032 183.365 67.6907 183.493 67.264C183.621 66.8373 183.685 66.2187 183.685 65.408V36.16ZM225.472 36.992C225.472 34.3467 224.896 32.4693 223.744 31.36C222.592 30.2507 221.205 29.696 219.584 29.696C218.133 29.696 216.832 30.272 215.68 31.424C214.528 32.576 213.952 34.2187 213.952 36.352C213.952 38.2293 214.57 39.9787 215.808 41.6C217.045 43.2213 219.136 44.6507 222.08 45.888C223.104 45.12 223.914 43.9253 224.512 42.304C225.152 40.6827 225.472 38.912 225.472 36.992ZM226.048 61.952C226.048 59.648 225.237 57.6853 223.616 56.064C221.994 54.4 219.52 52.8427 216.192 51.392C214.997 52.5013 214.058 53.8027 213.376 55.296C212.693 56.7467 212.352 58.4107 212.352 60.288C212.352 63.36 212.992 65.6853 214.272 67.264C215.594 68.8 217.301 69.568 219.392 69.568C221.653 69.568 223.317 68.8427 224.384 67.392C225.493 65.9413 226.048 64.128 226.048 61.952ZM234.24 59.776C234.24 61.9093 233.813 63.7867 232.96 65.408C232.106 66.9867 230.976 68.3093 229.568 69.376C228.16 70.4427 226.538 71.2533 224.704 71.808C222.912 72.3627 221.034 72.64 219.072 72.64C217.066 72.64 215.189 72.4053 213.44 71.936C211.69 71.4667 210.154 70.7627 208.832 69.824C207.509 68.8427 206.464 67.6053 205.696 66.112C204.928 64.6187 204.544 62.848 204.544 60.8C204.544 58.3253 205.376 56.1493 207.04 54.272C208.746 52.3947 211.008 51.008 213.824 50.112C210.965 48.3627 208.96 46.5067 207.808 44.544C206.698 42.5387 206.144 40.4907 206.144 38.4C206.144 36.5227 206.528 34.8587 207.296 33.408C208.064 31.9147 209.066 30.6773 210.304 29.696C211.584 28.672 213.056 27.904 214.72 27.392C216.384 26.8373 218.112 26.56 219.904 26.56C221.482 26.56 223.04 26.7947 224.576 27.264C226.112 27.6907 227.456 28.352 228.608 29.248C229.802 30.144 230.762 31.2747 231.488 32.64C232.213 33.9627 232.576 35.4987 232.576 37.248C232.576 39.2533 231.893 41.1947 230.528 43.072C229.162 44.9493 227.114 46.3147 224.384 47.168C226.261 48.0213 227.818 48.9173 229.056 49.856C230.336 50.7947 231.36 51.7973 232.128 52.864C232.896 53.888 233.429 54.976 233.728 56.128C234.069 57.28 234.24 58.496 234.24 59.776Z" fill="#79283B"/>
<path d="M183.59 88V78.07H189.605L189.455 79.075L186.665 78.61C186.375 78.61 186.105 78.635 185.855 78.685C185.605 78.725 185.335 78.785 185.045 78.865V82.51H188.375V83.08H185.045V87.46L189.695 86.995L189.545 88H183.59ZM199.303 88.165L192.733 79.945H192.673V88H192.013V78.07H193.123L198.838 85.285H198.898V78.07H199.558V88.165H199.303ZM202.252 88V78.07H208.267L208.117 79.075L205.327 78.61C205.037 78.61 204.767 78.635 204.517 78.685C204.267 78.725 203.997 78.785 203.707 78.865V82.51H207.037V83.08H203.707V87.46L208.357 86.995L208.207 88H202.252ZM216.78 88.21L213.3 83.26H212.145V88H210.675V78.07H213.915C214.565 78.07 215.15 78.17 215.67 78.37C216.19 78.56 216.6 78.845 216.9 79.225C217.21 79.595 217.365 80.055 217.365 80.605C217.365 81.315 217.095 81.88 216.555 82.3C216.015 82.71 215.33 82.99 214.5 83.14L218.52 88L216.78 88.21ZM212.145 82.81H213.105C213.835 82.81 214.39 82.705 214.77 82.495C215.16 82.285 215.43 82.02 215.58 81.7C215.73 81.37 215.805 81.03 215.805 80.68C215.805 80.63 215.79 80.52 215.76 80.35C215.74 80.17 215.68 79.97 215.58 79.75C215.48 79.52 215.315 79.305 215.085 79.105C214.865 78.895 214.555 78.735 214.155 78.625C213.865 78.625 213.52 78.65 213.12 78.7C212.73 78.75 212.405 78.81 212.145 78.88V82.81ZM223.886 88.18C223.056 88.18 222.301 87.995 221.621 87.625C220.941 87.245 220.401 86.695 220.001 85.975C219.601 85.245 219.401 84.355 219.401 83.305C219.401 82.485 219.511 81.77 219.731 81.16C219.951 80.55 220.246 80.04 220.616 79.63C220.996 79.21 221.416 78.875 221.876 78.625C222.346 78.365 222.826 78.18 223.316 78.07C223.816 77.95 224.296 77.89 224.756 77.89C225.596 77.89 226.356 78.075 227.036 78.445C227.716 78.815 228.256 79.36 228.656 80.08C229.056 80.8 229.256 81.685 229.256 82.735C229.256 83.555 229.146 84.27 228.926 84.88C228.706 85.49 228.406 86.005 228.026 86.425C227.646 86.845 227.221 87.185 226.751 87.445C226.291 87.705 225.811 87.89 225.311 88C224.821 88.12 224.346 88.18 223.886 88.18ZM224.321 87.685C224.921 87.685 225.431 87.54 225.851 87.25C226.281 86.96 226.626 86.585 226.886 86.125C227.156 85.665 227.351 85.165 227.471 84.625C227.601 84.085 227.666 83.57 227.666 83.08C227.666 82.46 227.601 81.875 227.471 81.325C227.351 80.765 227.146 80.275 226.856 79.855C226.576 79.435 226.196 79.105 225.716 78.865C225.246 78.625 224.656 78.505 223.946 78.505C223.276 78.735 222.721 79.085 222.281 79.555C221.841 80.025 221.516 80.565 221.306 81.175C221.096 81.785 220.991 82.42 220.991 83.08C220.991 83.69 221.051 84.275 221.171 84.835C221.301 85.385 221.496 85.875 221.756 86.305C222.016 86.735 222.356 87.075 222.776 87.325C223.206 87.565 223.721 87.685 224.321 87.685Z" fill="black"/>
<path d="M76.543 62.8984C76.543 63.5703 76.4219 64.1719 76.1797 64.7031C75.9375 65.2344 75.5977 65.6875 75.1602 66.0625C74.7227 66.4297 74.2031 66.7109 73.6016 66.9062C73 67.1016 72.3438 67.1992 71.6328 67.1992C71.1484 67.1992 70.6914 67.1523 70.2617 67.0586C69.832 66.9727 69.4492 66.8672 69.1133 66.7422C68.7773 66.6172 68.4922 66.4922 68.2578 66.3672C68.0312 66.2344 67.875 66.125 67.7891 66.0391C67.7031 65.9453 67.6406 65.8398 67.6016 65.7227C67.5625 65.5977 67.543 65.4453 67.543 65.2656C67.543 65.1328 67.5508 65.0234 67.5664 64.9375C67.582 64.8516 67.6016 64.7812 67.625 64.7266C67.6562 64.6719 67.6914 64.6367 67.7305 64.6211C67.7773 64.5977 67.8242 64.5859 67.8711 64.5859C67.9805 64.5859 68.1328 64.6562 68.3281 64.7969C68.5312 64.9297 68.7891 65.0781 69.1016 65.2422C69.4219 65.3984 69.8008 65.5469 70.2383 65.6875C70.6836 65.8203 71.1992 65.8867 71.7852 65.8867C72.2617 65.8867 72.6992 65.8242 73.0977 65.6992C73.4961 65.5664 73.8398 65.3789 74.1289 65.1367C74.418 64.8945 74.6406 64.5977 74.7969 64.2461C74.9609 63.8867 75.043 63.4805 75.043 63.0273C75.043 62.5586 74.9414 62.1562 74.7383 61.8203C74.5352 61.4844 74.2656 61.1914 73.9297 60.9414C73.6016 60.6836 73.2266 60.4531 72.8047 60.25C72.3828 60.0391 71.9492 59.832 71.5039 59.6289C71.0664 59.418 70.6367 59.1914 70.2148 58.9492C69.793 58.707 69.4141 58.4258 69.0781 58.1055C68.75 57.7773 68.4844 57.3945 68.2812 56.957C68.0781 56.5195 67.9766 56 67.9766 55.3984C67.9766 54.8125 68.082 54.2891 68.293 53.8281C68.5039 53.3594 68.8008 52.9648 69.1836 52.6445C69.5664 52.3164 70.0234 52.0664 70.5547 51.8945C71.0938 51.7227 71.6836 51.6367 72.3242 51.6367C72.6445 51.6367 72.9688 51.668 73.2969 51.7305C73.625 51.793 73.9336 51.875 74.2227 51.9766C74.5195 52.0703 74.7812 52.1797 75.0078 52.3047C75.2422 52.4219 75.3945 52.5195 75.4648 52.5977C75.543 52.668 75.5898 52.7227 75.6055 52.7617C75.6289 52.793 75.6484 52.8359 75.6641 52.8906C75.6797 52.9453 75.6914 53.0117 75.6992 53.0898C75.707 53.1602 75.7109 53.25 75.7109 53.3594C75.7109 53.4609 75.7031 53.5547 75.6875 53.6406C75.6797 53.7188 75.6641 53.7891 75.6406 53.8516C75.6172 53.9062 75.5859 53.9492 75.5469 53.9805C75.5156 54.0117 75.4766 54.0273 75.4297 54.0273C75.3438 54.0273 75.2109 53.9727 75.0312 53.8633C74.8594 53.7461 74.6406 53.6172 74.375 53.4766C74.1094 53.3359 73.793 53.2109 73.4258 53.1016C73.0586 52.9844 72.6406 52.9258 72.1719 52.9258C71.7109 52.9258 71.3086 52.9883 70.9648 53.1133C70.6211 53.2383 70.3359 53.4102 70.1094 53.6289C69.8828 53.8398 69.7109 54.0898 69.5938 54.3789C69.4844 54.668 69.4297 54.9727 69.4297 55.293C69.4297 55.7617 69.5312 56.1641 69.7344 56.5C69.9375 56.8359 70.207 57.1328 70.543 57.3906C70.8789 57.6484 71.2578 57.8828 71.6797 58.0938C72.1094 58.2969 72.543 58.5039 72.9805 58.7148C73.4258 58.918 73.8594 59.1406 74.2812 59.3828C74.7109 59.6172 75.0938 59.8984 75.4297 60.2266C75.7656 60.5469 76.0352 60.9258 76.2383 61.3633C76.4414 61.793 76.543 62.3047 76.543 62.8984ZM90.3945 66.5195C90.4414 66.6367 90.4609 66.7344 90.4531 66.8125C90.4531 66.8828 90.4258 66.9375 90.3711 66.9766C90.3242 67.0156 90.2461 67.0391 90.1367 67.0469C90.0352 67.0625 89.9023 67.0703 89.7383 67.0703C89.5742 67.0703 89.4414 67.0625 89.3398 67.0469C89.2461 67.0391 89.1719 67.0234 89.1172 67C89.0625 66.9766 89.0195 66.9453 88.9883 66.9062C88.9648 66.8672 88.9414 66.8203 88.918 66.7656L87.4648 62.7227H80.8086L79.4141 66.7422C79.3984 66.7969 79.375 66.8438 79.3438 66.8828C79.3125 66.9219 79.2695 66.957 79.2148 66.9883C79.1602 67.0117 79.082 67.0312 78.9805 67.0469C78.8867 67.0625 78.7656 67.0703 78.6172 67.0703C78.4531 67.0703 78.3164 67.0625 78.207 67.0469C78.0977 67.0312 78.0156 67.0039 77.9609 66.9648C77.9141 66.9258 77.8867 66.8711 77.8789 66.8008C77.8789 66.7305 77.9023 66.6367 77.9492 66.5195L83.2578 52.0938C83.2812 52.0312 83.3164 51.9805 83.3633 51.9414C83.4102 51.8945 83.4688 51.8594 83.5391 51.8359C83.6172 51.8125 83.707 51.7969 83.8086 51.7891C83.918 51.7734 84.0391 51.7656 84.1719 51.7656C84.3125 51.7656 84.4336 51.7734 84.5352 51.7891C84.6445 51.7969 84.7344 51.8125 84.8047 51.8359C84.8828 51.8594 84.9414 51.8945 84.9805 51.9414C85.0273 51.9805 85.0625 52.0312 85.0859 52.0938L90.3945 66.5195ZM84.1016 53.3711H84.0898L81.2305 61.5273H87.0312L84.1016 53.3711ZM85.8359 47.5938C85.9141 47.5078 85.9883 47.4414 86.0586 47.3945C86.1367 47.3398 86.2188 47.3008 86.3047 47.2773C86.3906 47.2461 86.4883 47.2266 86.5977 47.2188C86.707 47.2109 86.832 47.207 86.9727 47.207C87.1367 47.207 87.2695 47.2227 87.3711 47.2539C87.4727 47.2773 87.543 47.3125 87.582 47.3594C87.6289 47.3984 87.6445 47.4492 87.6289 47.5117C87.6211 47.5664 87.5898 47.625 87.5352 47.6875L84.8633 50.2539C84.7852 50.332 84.7148 50.3945 84.6523 50.4414C84.5898 50.4805 84.5234 50.5117 84.4531 50.5352C84.3828 50.5586 84.3047 50.5742 84.2188 50.582C84.1406 50.5898 84.043 50.5938 83.9258 50.5938C83.793 50.5938 83.6875 50.5859 83.6094 50.5703C83.5391 50.5469 83.4922 50.5195 83.4688 50.4883C83.4453 50.4492 83.4414 50.4023 83.457 50.3477C83.4727 50.293 83.5117 50.2305 83.5742 50.1602L85.8359 47.5938ZM102.605 62.7578C102.605 63.2031 102.551 63.6172 102.441 64C102.34 64.3828 102.191 64.7305 101.996 65.043C101.801 65.3555 101.562 65.6328 101.281 65.875C101 66.1172 100.68 66.3242 100.32 66.4961C99.9688 66.6602 99.5859 66.7852 99.1719 66.8711C98.7578 66.957 98.2773 67 97.7305 67H93.8047C93.6641 67 93.5195 66.9492 93.3711 66.8477C93.2227 66.7383 93.1484 66.543 93.1484 66.2617V52.5742C93.1484 52.293 93.2227 52.1016 93.3711 52C93.5195 51.8906 93.6641 51.8359 93.8047 51.8359H97.0625C97.9453 51.8359 98.6602 51.9258 99.207 52.1055C99.7539 52.2852 100.203 52.543 100.555 52.8789C100.914 53.207 101.18 53.6094 101.352 54.0859C101.531 54.5547 101.621 55.0781 101.621 55.6562C101.621 56.0156 101.578 56.3594 101.492 56.6875C101.414 57.0156 101.293 57.3203 101.129 57.6016C100.965 57.8828 100.758 58.1367 100.508 58.3633C100.266 58.5898 99.9766 58.7812 99.6406 58.9375C100.047 59.0156 100.43 59.1641 100.789 59.3828C101.148 59.5938 101.461 59.8633 101.727 60.1914C102 60.5195 102.215 60.9023 102.371 61.3398C102.527 61.7695 102.605 62.2422 102.605 62.7578ZM100.098 55.75C100.098 55.3516 100.043 54.9922 99.9336 54.6719C99.8242 54.3438 99.6484 54.0664 99.4062 53.8398C99.1719 53.6055 98.8633 53.4258 98.4805 53.3008C98.0977 53.1758 97.5859 53.1133 96.9453 53.1133H94.5781V58.5508H97.1797C97.75 58.5508 98.2109 58.4766 98.5625 58.3281C98.9141 58.1719 99.2031 57.9648 99.4297 57.707C99.6562 57.4492 99.8242 57.1523 99.9336 56.8164C100.043 56.4727 100.098 56.1172 100.098 55.75ZM101.082 62.875C101.082 62.375 101 61.9336 100.836 61.5508C100.68 61.168 100.445 60.8477 100.133 60.5898C99.8281 60.332 99.4492 60.1367 98.9961 60.0039C98.543 59.8711 97.9805 59.8047 97.3086 59.8047H94.5781V65.7227H97.8828C98.3672 65.7227 98.793 65.6641 99.1602 65.5469C99.5352 65.4219 99.8633 65.2422 100.145 65.0078C100.434 64.7656 100.66 64.4688 100.824 64.1172C100.996 63.7578 101.082 63.3438 101.082 62.875ZM116.527 66.5195C116.574 66.6367 116.594 66.7344 116.586 66.8125C116.586 66.8828 116.559 66.9375 116.504 66.9766C116.457 67.0156 116.379 67.0391 116.27 67.0469C116.168 67.0625 116.035 67.0703 115.871 67.0703C115.707 67.0703 115.574 67.0625 115.473 67.0469C115.379 67.0391 115.305 67.0234 115.25 67C115.195 66.9766 115.152 66.9453 115.121 66.9062C115.098 66.8672 115.074 66.8203 115.051 66.7656L113.598 62.7227H106.941L105.547 66.7422C105.531 66.7969 105.508 66.8438 105.477 66.8828C105.445 66.9219 105.402 66.957 105.348 66.9883C105.293 67.0117 105.215 67.0312 105.113 67.0469C105.02 67.0625 104.898 67.0703 104.75 67.0703C104.586 67.0703 104.449 67.0625 104.34 67.0469C104.23 67.0312 104.148 67.0039 104.094 66.9648C104.047 66.9258 104.02 66.8711 104.012 66.8008C104.012 66.7305 104.035 66.6367 104.082 66.5195L109.391 52.0938C109.414 52.0312 109.449 51.9805 109.496 51.9414C109.543 51.8945 109.602 51.8594 109.672 51.8359C109.75 51.8125 109.84 51.7969 109.941 51.7891C110.051 51.7734 110.172 51.7656 110.305 51.7656C110.445 51.7656 110.566 51.7734 110.668 51.7891C110.777 51.7969 110.867 51.8125 110.938 51.8359C111.016 51.8594 111.074 51.8945 111.113 51.9414C111.16 51.9805 111.195 52.0312 111.219 52.0938L116.527 66.5195ZM110.234 53.3711H110.223L107.363 61.5273H113.164L110.234 53.3711ZM130.426 59.1953C130.426 60.4688 130.266 61.5938 129.945 62.5703C129.625 63.5391 129.152 64.3516 128.527 65.0078C127.902 65.6641 127.129 66.1602 126.207 66.4961C125.293 66.832 124.199 67 122.926 67H119.938C119.797 67 119.652 66.9492 119.504 66.8477C119.355 66.7383 119.281 66.543 119.281 66.2617V52.5742C119.281 52.293 119.355 52.1016 119.504 52C119.652 51.8906 119.797 51.8359 119.938 51.8359H123.125C124.414 51.8359 125.5 52.0117 126.383 52.3633C127.273 52.7148 128.016 53.2148 128.609 53.8633C129.211 54.5039 129.664 55.2773 129.969 56.1836C130.273 57.082 130.426 58.0859 130.426 59.1953ZM128.891 59.2656C128.891 58.3828 128.777 57.5664 128.551 56.8164C128.332 56.0586 127.988 55.4062 127.52 54.8594C127.059 54.3125 126.473 53.8867 125.762 53.582C125.051 53.2695 124.145 53.1133 123.043 53.1133H120.711V65.7227H123.055C124.086 65.7227 124.957 65.5977 125.668 65.3477C126.387 65.0898 126.984 64.6953 127.461 64.1641C127.938 63.6328 128.293 62.9648 128.527 62.1602C128.77 61.3477 128.891 60.3828 128.891 59.2656ZM146.059 59.2422C146.059 60.4531 145.918 61.5508 145.637 62.5352C145.363 63.5117 144.949 64.3477 144.395 65.043C143.84 65.7305 143.141 66.2617 142.297 66.6367C141.453 67.0117 140.469 67.1992 139.344 67.1992C138.219 67.1992 137.25 67.0234 136.438 66.6719C135.633 66.3125 134.969 65.8047 134.445 65.1484C133.93 64.4844 133.547 63.6758 133.297 62.7227C133.055 61.7695 132.934 60.6953 132.934 59.5C132.934 58.3125 133.07 57.2344 133.344 56.2656C133.617 55.2969 134.031 54.4727 134.586 53.793C135.148 53.1055 135.848 52.5742 136.684 52.1992C137.527 51.8242 138.516 51.6367 139.648 51.6367C140.75 51.6367 141.703 51.8125 142.508 52.1641C143.312 52.5156 143.977 53.0195 144.5 53.6758C145.031 54.332 145.422 55.1289 145.672 56.0664C145.93 57.0039 146.059 58.0625 146.059 59.2422ZM144.535 59.3711C144.535 58.4727 144.449 57.6328 144.277 56.8516C144.113 56.0625 143.836 55.3789 143.445 54.8008C143.062 54.2148 142.551 53.7578 141.91 53.4297C141.27 53.0938 140.477 52.9258 139.531 52.9258C138.594 52.9258 137.801 53.1016 137.152 53.4531C136.512 53.7969 135.988 54.2617 135.582 54.8477C135.184 55.4336 134.895 56.1172 134.715 56.8984C134.543 57.6797 134.457 58.5039 134.457 59.3711C134.457 60.293 134.535 61.1523 134.691 61.9492C134.855 62.7383 135.129 63.4258 135.512 64.0117C135.895 64.5977 136.406 65.0586 137.047 65.3945C137.688 65.7227 138.488 65.8867 139.449 65.8867C140.402 65.8867 141.203 65.7109 141.852 65.3594C142.5 65 143.023 64.5234 143.422 63.9297C143.82 63.3281 144.105 62.6367 144.277 61.8555C144.449 61.0664 144.535 60.2383 144.535 59.3711Z" fill="#79283B"/>
<path d="M269.09 66.4141C269.09 66.5234 269.078 66.6172 269.055 66.6953C269.031 66.7656 269 66.8242 268.961 66.8711C268.922 66.918 268.879 66.9531 268.832 66.9766C268.785 66.9922 268.738 67 268.691 67H261.004C260.957 67 260.91 66.9922 260.863 66.9766C260.824 66.9531 260.785 66.918 260.746 66.8711C260.707 66.8242 260.676 66.7656 260.652 66.6953C260.629 66.6172 260.617 66.5234 260.617 66.4141C260.617 66.3203 260.625 66.2344 260.641 66.1562C260.664 66.0781 260.691 66.0156 260.723 65.9688C260.762 65.9141 260.805 65.875 260.852 65.8516C260.898 65.8203 260.949 65.8047 261.004 65.8047H264.367V53.3594L261.156 55.3164C261.031 55.3945 260.93 55.4414 260.852 55.457C260.773 55.4648 260.711 55.4492 260.664 55.4102C260.617 55.3711 260.586 55.3086 260.57 55.2227C260.555 55.1289 260.547 55.0195 260.547 54.8945C260.547 54.793 260.551 54.707 260.559 54.6367C260.566 54.5586 260.582 54.4922 260.605 54.4375C260.629 54.3828 260.656 54.3359 260.688 54.2969C260.727 54.2578 260.773 54.2188 260.828 54.1797L264.461 51.8594C264.484 51.8438 264.516 51.8281 264.555 51.8125C264.594 51.7969 264.641 51.7852 264.695 51.7773C264.75 51.7617 264.809 51.7539 264.871 51.7539C264.934 51.7461 265.008 51.7422 265.094 51.7422C265.227 51.7422 265.34 51.75 265.434 51.7656C265.527 51.7812 265.602 51.8008 265.656 51.8242C265.711 51.8477 265.75 51.8789 265.773 51.918C265.797 51.957 265.809 52 265.809 52.0469V65.8047H268.691C268.746 65.8047 268.797 65.8203 268.844 65.8516C268.898 65.875 268.941 65.9141 268.973 65.9688C269.012 66.0156 269.039 66.0781 269.055 66.1562C269.078 66.2344 269.09 66.3203 269.09 66.4141ZM280.973 62.7227C280.973 63.3789 280.863 63.9805 280.645 64.5273C280.434 65.0742 280.117 65.5469 279.695 65.9453C279.273 66.3438 278.746 66.6523 278.113 66.8711C277.48 67.0898 276.75 67.1992 275.922 67.1992C275.422 67.1992 274.953 67.1562 274.516 67.0703C274.078 66.9844 273.688 66.8828 273.344 66.7656C273.008 66.6484 272.727 66.5273 272.5 66.4023C272.273 66.2773 272.133 66.1914 272.078 66.1445C272.023 66.0977 271.98 66.0508 271.949 66.0039C271.926 65.957 271.902 65.9062 271.879 65.8516C271.863 65.7891 271.848 65.7148 271.832 65.6289C271.824 65.5352 271.82 65.4258 271.82 65.3008C271.82 65.0664 271.844 64.9062 271.891 64.8203C271.945 64.7344 272.016 64.6914 272.102 64.6914C272.172 64.6914 272.312 64.7578 272.523 64.8906C272.742 65.0234 273.02 65.168 273.355 65.3242C273.699 65.4805 274.094 65.625 274.539 65.7578C274.992 65.8906 275.492 65.957 276.039 65.957C276.602 65.957 277.094 65.8828 277.516 65.7344C277.938 65.5859 278.293 65.3789 278.582 65.1133C278.871 64.8398 279.086 64.5195 279.227 64.1523C279.375 63.7773 279.449 63.3711 279.449 62.9336C279.449 62.4648 279.355 62.043 279.168 61.668C278.98 61.2852 278.711 60.957 278.359 60.6836C278.008 60.4102 277.578 60.1992 277.07 60.0508C276.562 59.9023 275.992 59.8281 275.359 59.8281H273.859C273.812 59.8281 273.762 59.8164 273.707 59.793C273.66 59.7695 273.613 59.7344 273.566 59.6875C273.527 59.6328 273.492 59.5664 273.461 59.4883C273.438 59.4102 273.426 59.3125 273.426 59.1953C273.426 59.0938 273.438 59.0078 273.461 58.9375C273.484 58.8594 273.516 58.7969 273.555 58.75C273.594 58.6953 273.637 58.6562 273.684 58.6328C273.738 58.6094 273.797 58.5977 273.859 58.5977H275.184C275.73 58.5977 276.223 58.5234 276.66 58.375C277.105 58.2266 277.484 58.0156 277.797 57.7422C278.109 57.4609 278.348 57.1289 278.512 56.7461C278.684 56.3555 278.77 55.9219 278.77 55.4453C278.77 55.0938 278.711 54.7617 278.594 54.4492C278.484 54.1367 278.316 53.8633 278.09 53.6289C277.871 53.3945 277.59 53.2109 277.246 53.0781C276.91 52.9453 276.516 52.8789 276.062 52.8789C275.586 52.8789 275.152 52.9492 274.762 53.0898C274.371 53.2305 274.023 53.3867 273.719 53.5586C273.422 53.7227 273.176 53.875 272.98 54.0156C272.793 54.1562 272.66 54.2266 272.582 54.2266C272.535 54.2266 272.492 54.2188 272.453 54.2031C272.414 54.1875 272.379 54.1562 272.348 54.1094C272.324 54.0625 272.305 54 272.289 53.9219C272.281 53.8359 272.277 53.7266 272.277 53.5938C272.277 53.5078 272.281 53.4336 272.289 53.3711C272.297 53.3008 272.312 53.2383 272.336 53.1836C272.359 53.1289 272.387 53.0781 272.418 53.0312C272.449 52.9766 272.5 52.9141 272.57 52.8438C272.641 52.7734 272.785 52.668 273.004 52.5273C273.223 52.3867 273.488 52.25 273.801 52.1172C274.121 51.9844 274.484 51.8711 274.891 51.7773C275.297 51.6836 275.73 51.6367 276.191 51.6367C276.887 51.6367 277.488 51.7305 277.996 51.918C278.512 52.1055 278.938 52.3633 279.273 52.6914C279.609 53.0195 279.859 53.4102 280.023 53.8633C280.188 54.3086 280.27 54.793 280.27 55.3164C280.27 55.8008 280.203 56.2539 280.07 56.6758C279.945 57.0898 279.758 57.4609 279.508 57.7891C279.258 58.1094 278.949 58.3789 278.582 58.5977C278.223 58.8164 277.809 58.9648 277.34 59.043V59.0664C277.863 59.1133 278.344 59.2383 278.781 59.4414C279.227 59.6445 279.609 59.9062 279.93 60.2266C280.258 60.5469 280.512 60.9219 280.691 61.3516C280.879 61.7734 280.973 62.2305 280.973 62.7227ZM287.031 57.5547C287.031 57.7656 287.016 57.9453 286.984 58.0938C286.961 58.2344 286.91 58.3477 286.832 58.4336C286.754 58.5195 286.648 58.582 286.516 58.6211C286.391 58.6523 286.227 58.668 286.023 58.668C285.82 58.668 285.656 58.6523 285.531 58.6211C285.406 58.582 285.305 58.5195 285.227 58.4336C285.148 58.3477 285.094 58.2344 285.062 58.0938C285.039 57.9453 285.027 57.7656 285.027 57.5547C285.027 57.3281 285.039 57.1445 285.062 57.0039C285.094 56.8555 285.148 56.7383 285.227 56.6523C285.305 56.5664 285.406 56.5078 285.531 56.4766C285.656 56.4375 285.82 56.418 286.023 56.418C286.227 56.418 286.391 56.4375 286.516 56.4766C286.648 56.5078 286.754 56.5664 286.832 56.6523C286.91 56.7383 286.961 56.8555 286.984 57.0039C287.016 57.1445 287.031 57.3281 287.031 57.5547ZM287.031 65.957C287.031 66.1758 287.016 66.3594 286.984 66.5078C286.961 66.6484 286.91 66.7617 286.832 66.8477C286.754 66.9336 286.648 66.9922 286.516 67.0234C286.391 67.0625 286.227 67.082 286.023 67.082C285.82 67.082 285.656 67.0625 285.531 67.0234C285.406 66.9922 285.305 66.9336 285.227 66.8477C285.148 66.7617 285.094 66.6484 285.062 66.5078C285.039 66.3594 285.027 66.1758 285.027 65.957C285.027 65.7383 285.039 65.5547 285.062 65.4062C285.094 65.2578 285.148 65.1445 285.227 65.0664C285.305 64.9805 285.406 64.9219 285.531 64.8906C285.656 64.8516 285.82 64.832 286.023 64.832C286.227 64.832 286.391 64.8516 286.516 64.8906C286.648 64.9219 286.754 64.9805 286.832 65.0664C286.91 65.1445 286.961 65.2578 286.984 65.4062C287.016 65.5547 287.031 65.7383 287.031 65.957ZM300.203 59.3945C300.203 60.5352 300.113 61.582 299.934 62.5352C299.754 63.4883 299.453 64.3125 299.031 65.0078C298.617 65.6953 298.07 66.2344 297.391 66.625C296.719 67.0078 295.887 67.1992 294.895 67.1992C293.98 67.1992 293.203 67.0352 292.562 66.707C291.93 66.3711 291.414 65.875 291.016 65.2188C290.625 64.5625 290.34 63.7539 290.16 62.793C289.988 61.8242 289.902 60.707 289.902 59.4414C289.902 58.3086 289.992 57.2656 290.172 56.3125C290.352 55.3516 290.648 54.5273 291.062 53.8398C291.477 53.1445 292.02 52.6055 292.691 52.2227C293.371 51.832 294.207 51.6367 295.199 51.6367C296.113 51.6367 296.887 51.8047 297.52 52.1406C298.16 52.4688 298.68 52.9609 299.078 53.6172C299.477 54.2734 299.762 55.0859 299.934 56.0547C300.113 57.0156 300.203 58.1289 300.203 59.3945ZM298.703 59.5234C298.703 58.75 298.672 58.0508 298.609 57.4258C298.555 56.793 298.465 56.2305 298.34 55.7383C298.215 55.2461 298.055 54.8203 297.859 54.4609C297.672 54.0938 297.441 53.793 297.168 53.5586C296.902 53.3164 296.598 53.1406 296.254 53.0312C295.91 52.9141 295.523 52.8555 295.094 52.8555C294.32 52.8555 293.691 53.0391 293.207 53.4062C292.73 53.7656 292.355 54.2461 292.082 54.8477C291.816 55.4492 291.637 56.1367 291.543 56.9102C291.449 57.6836 291.402 58.4844 291.402 59.3125C291.402 60.4688 291.469 61.4688 291.602 62.3125C291.734 63.1484 291.945 63.8398 292.234 64.3867C292.523 64.9258 292.895 65.3281 293.348 65.5938C293.801 65.8516 294.352 65.9805 295 65.9805C295.516 65.9805 295.965 65.8984 296.348 65.7344C296.73 65.5703 297.059 65.3398 297.332 65.043C297.605 64.7461 297.832 64.3945 298.012 63.9883C298.191 63.582 298.332 63.1406 298.434 62.6641C298.535 62.1875 298.605 61.6836 298.645 61.1523C298.684 60.6211 298.703 60.0781 298.703 59.5234ZM312.367 59.3945C312.367 60.5352 312.277 61.582 312.098 62.5352C311.918 63.4883 311.617 64.3125 311.195 65.0078C310.781 65.6953 310.234 66.2344 309.555 66.625C308.883 67.0078 308.051 67.1992 307.059 67.1992C306.145 67.1992 305.367 67.0352 304.727 66.707C304.094 66.3711 303.578 65.875 303.18 65.2188C302.789 64.5625 302.504 63.7539 302.324 62.793C302.152 61.8242 302.066 60.707 302.066 59.4414C302.066 58.3086 302.156 57.2656 302.336 56.3125C302.516 55.3516 302.812 54.5273 303.227 53.8398C303.641 53.1445 304.184 52.6055 304.855 52.2227C305.535 51.832 306.371 51.6367 307.363 51.6367C308.277 51.6367 309.051 51.8047 309.684 52.1406C310.324 52.4688 310.844 52.9609 311.242 53.6172C311.641 54.2734 311.926 55.0859 312.098 56.0547C312.277 57.0156 312.367 58.1289 312.367 59.3945ZM310.867 59.5234C310.867 58.75 310.836 58.0508 310.773 57.4258C310.719 56.793 310.629 56.2305 310.504 55.7383C310.379 55.2461 310.219 54.8203 310.023 54.4609C309.836 54.0938 309.605 53.793 309.332 53.5586C309.066 53.3164 308.762 53.1406 308.418 53.0312C308.074 52.9141 307.688 52.8555 307.258 52.8555C306.484 52.8555 305.855 53.0391 305.371 53.4062C304.895 53.7656 304.52 54.2461 304.246 54.8477C303.98 55.4492 303.801 56.1367 303.707 56.9102C303.613 57.6836 303.566 58.4844 303.566 59.3125C303.566 60.4688 303.633 61.4688 303.766 62.3125C303.898 63.1484 304.109 63.8398 304.398 64.3867C304.688 64.9258 305.059 65.3281 305.512 65.5938C305.965 65.8516 306.516 65.9805 307.164 65.9805C307.68 65.9805 308.129 65.8984 308.512 65.7344C308.895 65.5703 309.223 65.3398 309.496 65.043C309.77 64.7461 309.996 64.3945 310.176 63.9883C310.355 63.582 310.496 63.1406 310.598 62.6641C310.699 62.1875 310.77 61.6836 310.809 61.1523C310.848 60.6211 310.867 60.0781 310.867 59.5234ZM329.676 56.1836C329.676 56.8867 329.555 57.5312 329.312 58.1172C329.078 58.7031 328.738 59.207 328.293 59.6289C327.848 60.0508 327.305 60.3789 326.664 60.6133C326.023 60.8477 325.25 60.9648 324.344 60.9648H322.375V66.7656C322.375 66.8125 322.363 66.8555 322.34 66.8945C322.316 66.9336 322.277 66.9648 322.223 66.9883C322.168 67.0117 322.094 67.0312 322 67.0469C321.914 67.0625 321.801 67.0703 321.66 67.0703C321.527 67.0703 321.414 67.0625 321.32 67.0469C321.227 67.0312 321.152 67.0117 321.098 66.9883C321.043 66.9648 321.004 66.9336 320.98 66.8945C320.957 66.8555 320.945 66.8125 320.945 66.7656V52.5742C320.945 52.293 321.02 52.1016 321.168 52C321.316 51.8906 321.461 51.8359 321.602 51.8359H324.684C324.988 51.8359 325.285 51.8516 325.574 51.8828C325.863 51.9062 326.199 51.9648 326.582 52.0586C326.973 52.1445 327.367 52.3125 327.766 52.5625C328.172 52.8047 328.516 53.1055 328.797 53.4648C329.078 53.8164 329.293 54.2227 329.441 54.6836C329.598 55.1367 329.676 55.6367 329.676 56.1836ZM328.164 56.3125C328.164 55.6562 328.035 55.1016 327.777 54.6484C327.52 54.1875 327.203 53.8477 326.828 53.6289C326.461 53.4023 326.074 53.2617 325.668 53.207C325.27 53.1445 324.891 53.1133 324.531 53.1133H322.375V59.6992H324.438C325.102 59.6992 325.656 59.6172 326.102 59.4531C326.547 59.2812 326.922 59.0469 327.227 58.75C327.531 58.4531 327.762 58.0977 327.918 57.6836C328.082 57.2617 328.164 56.8047 328.164 56.3125ZM347.758 66.7656C347.758 66.8125 347.746 66.8555 347.723 66.8945C347.699 66.9336 347.66 66.9648 347.605 66.9883C347.559 67.0117 347.488 67.0312 347.395 67.0469C347.309 67.0625 347.199 67.0703 347.066 67.0703C346.926 67.0703 346.809 67.0625 346.715 67.0469C346.629 67.0312 346.559 67.0117 346.504 66.9883C346.449 66.9648 346.41 66.9336 346.387 66.8945C346.371 66.8555 346.363 66.8125 346.363 66.7656V60.2383C346.363 59.7383 346.316 59.2852 346.223 58.8789C346.137 58.4648 345.996 58.1133 345.801 57.8242C345.613 57.5273 345.371 57.3008 345.074 57.1445C344.785 56.9805 344.441 56.8984 344.043 56.8984C343.551 56.8984 343.051 57.0898 342.543 57.4727C342.043 57.8555 341.492 58.418 340.891 59.1602V66.7656C340.891 66.8125 340.879 66.8555 340.855 66.8945C340.832 66.9336 340.793 66.9648 340.738 66.9883C340.691 67.0117 340.621 67.0312 340.527 67.0469C340.441 67.0625 340.332 67.0703 340.199 67.0703C340.066 67.0703 339.953 67.0625 339.859 67.0469C339.773 67.0312 339.703 67.0117 339.648 66.9883C339.594 66.9648 339.555 66.9336 339.531 66.8945C339.516 66.8555 339.508 66.8125 339.508 66.7656V60.2383C339.508 59.7383 339.461 59.2852 339.367 58.8789C339.273 58.4648 339.129 58.1133 338.934 57.8242C338.746 57.5273 338.504 57.3008 338.207 57.1445C337.918 56.9805 337.574 56.8984 337.176 56.8984C336.684 56.8984 336.184 57.0898 335.676 57.4727C335.176 57.8555 334.629 58.418 334.035 59.1602V66.7656C334.035 66.8125 334.023 66.8555 334 66.8945C333.977 66.9336 333.938 66.9648 333.883 66.9883C333.836 67.0117 333.766 67.0312 333.672 67.0469C333.586 67.0625 333.473 67.0703 333.332 67.0703C333.199 67.0703 333.086 67.0625 332.992 67.0469C332.906 67.0312 332.836 67.0117 332.781 66.9883C332.727 66.9648 332.688 66.9336 332.664 66.8945C332.648 66.8555 332.641 66.8125 332.641 66.7656V56.1602C332.641 56.1133 332.648 56.0703 332.664 56.0312C332.688 55.9922 332.727 55.9609 332.781 55.9375C332.836 55.9062 332.902 55.8867 332.98 55.8789C333.066 55.8633 333.176 55.8555 333.309 55.8555C333.441 55.8555 333.551 55.8633 333.637 55.8789C333.723 55.8867 333.789 55.9062 333.836 55.9375C333.883 55.9609 333.914 55.9922 333.93 56.0312C333.953 56.0703 333.965 56.1133 333.965 56.1602V57.6602C334.574 56.9805 335.152 56.4883 335.699 56.1836C336.246 55.8789 336.789 55.7266 337.328 55.7266C337.773 55.7266 338.168 55.7812 338.512 55.8906C338.863 55.9922 339.172 56.1406 339.438 56.3359C339.703 56.5234 339.93 56.75 340.117 57.0156C340.305 57.2812 340.457 57.5742 340.574 57.8945C340.941 57.4883 341.285 57.1484 341.605 56.875C341.934 56.5938 342.242 56.3711 342.531 56.207C342.828 56.0352 343.113 55.9141 343.387 55.8438C343.66 55.7656 343.93 55.7266 344.195 55.7266C344.859 55.7266 345.418 55.8438 345.871 56.0781C346.332 56.3125 346.699 56.6289 346.973 57.0273C347.254 57.4258 347.453 57.8906 347.57 58.4219C347.695 58.9531 347.758 59.5156 347.758 60.1094V66.7656Z" fill="#79283B"/>
<rect x="250" y="43" width="108" height="1" fill="black"/>
<rect x="53" y="43" width="108" height="1" fill="black"/>
<rect x="250" y="74" width="108" height="1" fill="black"/>
<rect x="53" y="74" width="108" height="1" fill="black"/>
</svg>
