<svg width="232" height="142" viewBox="0 0 232 142" fill="none" xmlns="http://www.w3.org/2000/svg">
<g clip-path="url(#clip0_45_291)">
<path d="M156.86 17.5699C158.843 14.7651 160.455 14.7662 161.911 13.0817C162.427 12.4853 162.172 11.5772 162.482 11.0818C162.603 10.889 164.591 9.45515 165.147 8.79328C167.591 5.88567 167.775 4.63547 171.046 1.84055C171.436 1.5076 171.556 0.817923 171.622 0.771091C171.689 0.723893 172.609 1.20319 173.221 1.12416C174.165 1.00232 174.569 -0.498131 175.646 0.172153C177.071 1.59431 176.035 3.49284 176.078 4.94646C176.096 5.54065 177.249 10.2762 177.478 10.705C177.75 11.2157 178.518 11.1301 178.863 11.983C179.721 14.1095 179.785 17.8593 180.527 20.2137C181.146 22.1774 184.064 23.1938 184.82 25.8204C185.789 29.1821 184.805 33.6172 186.981 36.8413C184.419 40.4112 187.701 39.8301 189.628 41.8941C190.53 42.8592 193.511 47.9954 193.937 49.3213C194.621 51.4482 194.698 53.3935 195.468 55.5467C195.68 56.1391 196.848 59.0609 196.618 59.279L195.489 59.4795L195.515 63.3069C196.792 63.7731 196.936 62.7237 197.269 62.6037C197.79 62.4164 198.426 62.4735 199.027 62.2243C202.05 60.9715 204.058 58.9025 207.291 58.1847C207.573 59.1901 206.959 59.1597 206.669 59.5465C205.162 61.5562 203.888 61.0447 202.198 61.7183C200.665 62.3297 199.12 63.3453 197.441 63.7555L196.986 67.3305C201.412 67.7827 204.262 62.2795 208.554 63.6783C209.463 62.4702 211.641 61.5002 213.182 61.1117L211.151 63.2985L205.633 66.9613C204.456 67.0542 206.161 65.897 204.721 66.2317C204.948 69.0212 199.098 68.0114 198.052 69.3055C197.218 71.1476 198.087 73.5602 197.646 75.4858C197.376 76.6599 195.652 77.8509 195.311 79.0184C194.886 80.4767 194.863 80.7698 194.349 82.0965C193.314 84.7699 195.721 86.3626 196.767 88.5853C199.013 93.36 197.389 94.7997 197.692 98.9754C197.756 99.8553 198.329 100.43 198.426 101.205C198.657 103.069 198.916 104.928 198.855 106.815C201.462 106.658 202.572 108.793 204.998 109.674C207.279 110.501 210.547 110.189 212.076 112.52L211.344 113.79C211.758 113.848 212.237 113.958 212.576 114.204C215.731 116.501 219.347 118.193 221.593 121.353C221.933 121.832 221.986 122.555 222.382 123.129C223.783 125.16 223.876 123.724 224.775 123.682C224.923 123.675 227.441 124.421 227.626 124.504C229.923 125.531 232.421 128.963 231.94 131.523C231.868 131.906 228.722 136.592 228.298 137.05C226.907 138.547 222.389 140.675 220.359 140.864C217.202 141.158 210.504 139.534 207.584 138.204C204.263 136.691 201.28 133.111 197.819 132.543C195.419 132.149 192.869 132.875 190.516 132.119C189.449 132.174 188.468 134.321 187.515 134.593C186.541 134.871 185.362 134.154 184.013 134.362C183.445 134.45 180.283 135.366 179.702 135.583C177.698 136.334 177.783 138.171 174.364 137.558C166.732 136.191 162.8 136.827 155.224 137.598C152.179 137.908 149.035 138.317 145.98 138.655C144.2 138.853 132.536 138.028 130.996 137.556C130.849 137.511 129.893 136.616 128.868 136.314C125.525 135.327 125.492 136.13 122.827 136.499C117.999 137.168 117.403 136.001 112.299 138.125C109.049 139.477 103.575 138.168 99.9673 138.296C93.955 138.509 92.4449 139.855 85.604 138.698C83.0724 138.27 83.7306 139.468 83.0068 139.718C82.1351 140.02 80.833 139.565 79.8152 139.851C78.2915 140.279 77.7426 141.97 74.5793 141.998C70.1981 142.036 65.6819 141.693 61.3454 141.618C55.1347 141.511 46.9515 142.494 41.1063 141.581C40.2357 141.444 39.5425 140.71 38.8847 140.666C37.8893 140.599 36.8313 141.444 35.9069 141.579C33.4997 141.933 23.474 142.061 21.2943 141.512C21.0131 141.441 16.6555 139.294 16.1019 138.989C9.40965 135.311 5.83475 129.952 3.62708 122.85C2.16339 118.141 -0.356452 111.51 0.0429686 106.666C0.229242 104.407 0.760821 99.1774 1.6458 97.4611C3.66205 93.5495 3.94735 88.7053 5.77953 84.5573C6.79888 82.2494 5.8977 83.1315 5.60025 80.6425C5.41766 79.1128 5.77769 77.3858 5.53841 75.9472C5.10512 73.3444 3.60425 71.0079 3.35466 67.8731C3.06936 64.2904 4.44801 58.8326 4.10417 56.217C4.07215 55.9729 3.42571 56.0227 3.35503 55.7392C2.71375 53.167 4.20651 48.5585 4.78705 45.889C5.20194 43.9825 5.11248 44.4526 5.66394 43.0916C7.06762 39.6282 7.87087 35.9643 9.22559 32.3729C9.87681 30.6459 11.6195 28.0003 11.9497 26.633C12.2365 25.4443 11.4885 24.4978 12.0624 23.1429C12.1511 22.9333 14.3286 21.1127 14.7851 20.693C15.8862 19.681 16.3761 19.0722 17.348 18.1257C22.1035 13.4951 22.204 13.7136 28.8458 12.7246C29.3391 12.6511 29.8188 12.1736 30.4273 12.1012C32.0798 11.9051 33.8222 12.1923 35.4843 12.0759C36.3497 14.0158 38.8434 15.0498 39.0588 17.0141C39.9029 24.7169 33.9286 30.0437 28.95 35.4773C29.2632 39.6077 25.572 42.6961 24.2736 46.2436C23.816 47.4938 24.1389 48.7034 23.8852 49.8705C23.5955 51.2041 22.3152 52.6797 22.1164 54.3291C21.8462 56.5708 22.6542 57.3545 22.8718 59.0847C23.1512 61.3096 22.2184 63.368 22.8644 65.5C23.8322 65.8139 23.4659 64.9343 23.8595 64.7766C24.4684 64.533 25.2451 64.5674 25.8816 64.2933C28.9617 62.9667 31.8 61.3733 35.2041 60.7546L38.3207 55.4362C37.1501 55.1808 37.5016 52.9409 37.5914 51.7848C37.9702 46.9011 39.8761 37.764 43.4591 34.2008C44.2984 33.3662 44.8881 33.3274 46.1854 31.9704C46.7354 31.3953 49.3959 28.7086 49.9838 28.6329C51.5469 28.432 51.4136 30.1172 51.9279 30.939C53.3581 33.2246 55.3831 32.963 57.0673 33.881C58.6352 34.7353 59.0858 36.7451 60.1876 37.5335C64.2562 40.4459 62.5451 40.4156 64.8084 43.7505C65.1588 44.2668 65.9006 44.4219 66.1704 44.7728C67.0065 45.8587 69.0569 49.0187 70.1131 49.6221C74.1519 51.9289 78.7763 51.2623 83.0326 51.9783C83.7718 52.1027 85.1873 53.5651 85.7207 52.0972C85.8017 51.8744 86.2294 47.6796 86.2133 47.3837C86.1477 46.1748 84.7948 45.7186 85.0831 44.8478C85.2141 44.4515 85.988 44.404 86.101 44.2093C86.4003 43.6923 85.879 42.8365 86.3911 42.4063C87.4693 41.6065 91.7904 42.3836 93.3693 42.0924C94.3272 41.9156 93.969 41.0547 94.8153 40.9545C98.772 40.4865 103.76 41.9581 107.897 41.354L107.882 43.0114L112.424 43.5518C113.008 42.5277 115.029 41.5406 115.458 40.5989C115.725 40.0131 115.228 39.4434 115.588 38.9564C117.385 36.5241 122.489 34.859 125.095 33.7464C129.385 31.9141 136.369 27.8276 140.483 27.5279C142.761 27.3622 145.861 26.9532 148.166 26.3092C150.842 25.5617 150.818 24.1623 152.432 22.5001C154.315 20.5606 155.38 19.6623 156.859 17.5703C156.805 17.687 157.152 18.2826 157.003 18.6697C156.767 19.2848 155.969 19.6898 156.127 20.4969C156.978 20.2082 157.925 20.2763 157.603 21.4076C157.553 21.5821 156.963 21.6161 156.858 21.8408C156.596 22.4039 156.621 23.0624 156.393 23.5084C154.865 26.4932 152.81 28.7694 150.36 31.051C142.992 31.7015 134.797 34.3201 128.06 37.7132C123.914 39.8012 117.444 43.4219 113.461 45.9637C113.043 46.2308 112.991 46.8809 112.456 47.1136C112.081 47.2775 104.919 47.9983 104.384 47.9522C103.194 47.8494 102.406 47.3591 101.422 47.2406C97.3396 46.7478 93.5961 46.3618 89.49 46.8389C89.2849 47.0456 89.7344 50.3469 89.889 50.9517C89.9487 51.1851 90.8535 53.6763 91.0759 54.2306C92.0341 56.6224 93.7687 58.6647 94.6949 61.0564C97.3451 60.609 97.4548 62.5254 98.8747 64.0409C100.244 65.5022 102.099 66.8706 103.119 68.42L103.847 68.2012L104.22 65.5L105.318 65.8648L105.322 63.6688L106.792 63.668C106.374 65.0752 107.388 65.9807 107.549 67.127C107.988 70.2523 106.783 72.8248 106.761 75.1895C106.747 76.6775 107.551 78.1556 107.551 79.9517C107.551 82.3376 106.4 84.4714 106.777 86.9216L109.749 96.224C110.745 96.4183 112.152 95.4458 113.061 96.0403C114.395 96.9126 111.877 97.0275 112.318 98.2407L113.045 98.7906L114.148 98.064C113.979 99.7331 115.736 102.176 117.131 102.971C117.697 103.293 120.522 104.065 121.357 104.259C122.816 104.598 126.053 103.922 126.304 106.111H120.598C120.42 106.111 117.443 107.225 117.829 107.941C116.197 106.43 116.632 108.216 115.798 109.391C114.097 111.787 113.927 111.472 112.405 114.442C112.002 115.229 110.769 115.347 110.861 116.547C110.961 117.86 112.522 117.973 113.233 118.553C114.793 119.826 115.509 121.733 116.861 123.179C118.14 124.548 120.295 125.591 121.334 127.326C122.07 125.58 123.492 125.878 123.374 127.849L122.632 128.071L122.622 128.791C124.959 129.255 127.962 131.325 130.19 131.702C132.577 132.105 136.07 131.566 138.651 131.708C146.085 132.117 150.628 135.005 158.429 133.101C158.917 132.981 159.186 132.332 159.706 132.174C162.356 131.366 165.594 131.357 168.237 129.677C171.185 127.803 170.21 124.441 172.879 122.578L173.791 123.138L172.322 128.794C173.881 129.046 174.084 127.415 175.074 126.594C175.679 126.092 178.375 124.529 178.966 124.942C179.671 125.433 178.991 126.55 181.433 124.902C183.855 123.267 190.176 116.811 191.369 114.251C192.427 111.981 193.273 108.56 194.108 106.157L195.169 105.909L195.14 104.282L194.043 105.013C193.754 104.136 194.564 103.289 194.603 102.65C194.741 100.387 194.092 94.1715 193.089 92.2349C192.163 90.4479 189.932 89.2567 190.724 86.356C189.699 86.2345 189.609 87.5981 188.845 88.3277C185.165 91.8416 178.829 94.5838 174.082 95.9928C172.487 96.4662 171.945 94.9464 173.732 95.0777L173.795 94.035L175.031 94.4396L175.821 93.3076L176.002 94.3998L177.104 94.4023V92.2104L174.897 92.57C176.392 89.8132 180.464 88.7825 182.451 86.3618C183.201 85.4486 184.695 83.3214 185.365 82.3058C187.014 79.8035 188.196 77.0829 189.62 74.461L188.515 74.2788C188.652 71.7308 191.605 70.9603 191.093 68.0618L186.859 69.8799L186.67 68.9732C188.165 68.0984 190.536 67.4245 190.385 65.5241L191.833 65.5007C191.505 63.9179 192.151 61.9744 192.123 60.5607C192.069 57.832 188.483 50.787 186.837 48.3258C183.36 43.1241 178.642 40.0614 175.063 35.7082C174.12 34.5615 173.544 34.0735 173.788 32.4109C175.273 31.4509 175.248 32.9114 175.784 33.3198C176.417 33.8016 177.301 33.6421 177.951 34.0318C178.285 34.2319 179.857 36.5815 180.06 34.9453C180.307 32.9499 177.214 29.3379 178.207 26.7172L176.035 26.6795L171.949 7.692C171.76 7.4604 169.381 9.29782 169.173 9.51003C167.181 11.5381 165.311 13.4944 163.224 15.4844C162.62 16.0607 161.664 17.4719 161.229 18.2537L160.373 18.2775L158.522 16.4686C158.348 16.8327 156.9 17.4788 156.858 17.5688L156.86 17.5699ZM32.6353 25.8328C33.9911 23.8414 33.2203 23.7155 33.5527 21.7936C33.6477 21.2448 34.1833 20.8269 34.2543 20.2953C34.5779 17.8791 35.0282 14.8321 31.9027 15.3926C29.6336 15.7998 22.8177 19.0524 21.1313 20.6089C20.7256 20.9835 15.2497 29.2022 15.0597 29.7565C11.7145 39.5063 8.12083 49.4907 8.4908 59.8099C8.57915 62.2774 9.64121 65.3046 9.95854 67.5291C10.0826 68.3984 10.1382 73.6473 10.3462 73.9126C11.18 74.487 11.106 72.4139 11.8154 73.1852C12.0215 73.4091 11.307 74.5294 11.2757 74.9564C11.2021 75.9596 11.6589 77.2128 11.4506 78.3034C13.5666 78.4242 13.5316 75.1898 13.6814 75.0347C13.74 74.974 14.7254 75.0223 15.3336 74.6692C15.5578 74.5389 18.6751 71.0148 18.7252 70.7616C18.8282 70.2436 17.6495 67.3663 17.4426 66.3119C17.2541 65.3492 17.5085 64.327 17.3322 63.5532C17.27 63.2802 16.6769 63.3314 16.6099 63.0526C16.1516 61.145 16.886 58.9442 17.4124 57.1357L18.469 56.8832C17.9742 53.3555 19.0245 50.0216 19.5082 46.6182C19.9164 43.7447 19.5008 41.2446 21.0245 38.3396C21.2454 37.9184 22.2279 37.5646 22.6918 36.9756C24.038 35.2662 25.0452 33.4171 26.9087 32.0202C24.7717 30.9888 27.8493 29.8809 28.5675 29.279C29.4444 28.5443 32.1994 26.4728 32.6353 25.8328ZM58.0952 36.3214C57.6538 35.9874 55.9107 35.1451 55.258 35.1338L55.9015 35.9252L55.618 36.5925L56.7349 36.5976L56.3627 37.3199L58.0108 37.6912L58.3874 36.9584C58.284 36.7601 58.288 36.4667 58.0955 36.321L58.0952 36.3214ZM58.7357 42.6602C57.3777 41.3694 54.5015 37.6653 53.252 36.9419C52.3082 36.3953 51.4556 36.4839 50.5691 37.0649C49.5104 39.5931 47.6786 42.1117 46.5064 44.5452C45.0836 47.4993 40.9388 57.578 40.8928 60.5592C40.8891 60.7978 40.7842 61.1603 41.0813 61.1073C42.1312 60.0923 42.9293 58.6837 44.5925 59.4521L44.9599 60.5442C43.8309 61.5171 42.3462 62.6754 41.4005 63.8005C41.1634 64.0826 41.1667 64.6233 40.9068 64.9424C39.9154 66.1597 35.5174 71.1926 35.4187 72.3356C35.3282 73.3846 37.9574 73.6769 38.571 74.0377C38.8906 74.2258 39.5212 75.2787 39.9346 75.6047C40.3314 75.9179 41.1605 75.7577 41.2668 76.4715C39.5473 77.0547 39.1218 75.5671 38.3152 75.1968C37.6433 74.8884 36.7856 74.5587 36.1944 74.3128C34.3596 73.5492 32.9037 74.0201 32.7991 76.1056C34.4524 75.6779 38.2235 79.3352 37.954 80.6754C36.8857 82.0196 36.585 79.6963 36.1348 79.1976C35.7475 78.7688 35.1327 78.7414 34.6711 78.4392C34.3832 78.2507 34.3589 77.6785 34.0095 77.5706C32.2734 77.0335 32.6545 77.9372 32.2907 78.5164C32.188 78.6803 31.7625 78.6946 31.7076 78.9324C31.4573 80.019 31.5394 81.8641 31.2872 83.2047C31.0189 84.6298 30.1545 85.8423 30.6007 87.5846L29.8578 87.8232L30.5992 88.4184L30.5885 96.231L29.2423 94.0961C28.4869 91.1812 27.6394 88.1645 27.2676 85.0864C26.9738 82.6563 27.7996 82.6939 28.2189 81.2531C28.4541 80.4456 28.2502 79.6202 28.4581 78.9298C28.651 78.2899 30.3334 77.4488 29.4926 77.0178L16.6555 75.7778C15.5449 77.8344 13.501 78.9474 12.0252 80.8916C7.04221 87.4551 6.32105 94.0021 5.56049 101.907C5.11064 106.583 4.69134 111.94 5.64332 116.453C6.99325 122.853 12.9522 134.103 20.2017 134.957C21.4228 135.101 21.6547 134.298 22.6181 134.297C25.4675 134.293 28.1581 135.751 30.8153 136.072C33.0461 136.342 35.5329 135.906 37.7656 136.116C39.4325 136.273 41.2079 137.06 42.9286 137.205C45.5784 137.429 47.9859 136.67 50.4973 137.009L51.0609 138.332C53.2163 138.959 53.0175 137.16 54.6992 136.842C54.9532 137.37 54.1337 137.94 55.1295 138.251C56.5291 138.688 60.8974 138.451 62.2458 137.574L62.2712 138.649C63.0579 139.366 65.0267 137.464 64.8257 136.481L63.57 136.485L63.3557 135.567L65.7162 134.264C67.4644 134.995 69.2156 135.716 69.8389 137.601L72.9234 137.573C72.9812 136.973 72.1165 137.154 71.8234 136.658C71.4759 136.069 72.3215 135.991 72.7482 136.106C73.7672 136.379 73.6659 137.51 74.7622 137.584L74.7629 138.307L74.0322 138.67C76.488 139.287 76.9404 137.407 77.3443 135.386C76.8164 135.301 76.2513 135.184 75.7768 134.928C75.0085 134.513 70.8781 131.52 70.5066 131.017C69.9629 130.28 70.0399 129.512 69.6334 128.958C68.9336 128.003 66.7028 127.914 65.5645 127.699L65.5424 128.757C63.9893 128.207 62.2484 129.809 61.3137 129.887C60.633 129.943 59.9391 129.43 59.1487 129.523C58.4044 129.611 56.7025 131.363 56.362 130.99C55.6703 130.231 57.6365 129.282 58.0458 128.815C58.4688 128.334 58.4463 127.643 58.8233 127.311C59.8854 126.375 64.3357 125.969 65.5623 125.316C66.1612 124.997 66.1911 124.058 66.5135 124.031C66.6888 124.016 68.6343 124.486 68.8659 124.615C69.1497 124.772 69.2543 125.408 69.7181 125.648C74.1452 127.94 81.2877 129.357 81.3944 135.748C83.2384 135.174 85.1295 134.762 87.0835 134.635C92.3511 134.29 99.5704 135.889 104.385 135C105.391 134.814 106.636 133.5 107.796 133.268C109.815 132.864 112.616 133.057 114.691 132.802C115.459 132.708 116.063 132.047 116.923 132.058C118.048 132.073 119.377 133.58 120.783 133.183C119.216 131.579 119.217 128.536 117.798 127.192C116.478 125.943 116.014 126.72 115.258 126.428C114.192 126.016 112.045 124.594 111.087 124.758C110.925 124.786 110.254 126.258 109.373 125.868L109.955 122.574C109.762 122.203 106.587 120.909 106.145 120.831C103.862 120.431 99.2892 123.585 96.5662 123.936C94.4126 124.214 91.6071 124.223 89.4948 124.042C89.5857 125.996 92.6713 126.491 91.8872 128.795C90.5156 128.134 89.7337 126.169 88.5726 125.469C88.0038 125.126 87.5389 125.413 87.2749 125.279C86.747 125.01 86.5335 124.275 85.9169 124.106C85.4317 123.972 78.0978 123.567 77.5018 123.646C76.7659 123.744 77.1352 124.45 76.4497 124.437C73.5676 124.379 68.4908 123.73 66.173 122.506C62.992 120.827 63.2427 120.687 59.5728 119.931C58.3024 119.669 57.9656 118.751 57.5455 118.58C56.9632 118.344 54.676 118.336 54.5217 117.632C55.3272 114.876 58.0263 117.767 59.5625 118.114C61.0615 118.452 63.1812 118.111 64.5393 118.289C66.5905 118.558 74.7018 119.822 76.0882 120.512C76.8528 120.892 76.0367 121.77 78.1843 121.156C79.5085 121.492 77.9833 122.758 80.4701 122.943C83.4637 123.165 82.8684 121.632 84.9837 121.577C87.667 121.508 91.8077 121.874 94.3776 121.396C94.9604 121.287 98.6869 120.326 99.0507 120.186C99.4228 120.042 105.149 116.259 105.693 115.811C107.69 114.166 111.118 108.1 111.241 105.558C111.339 103.517 109.662 102.561 109.221 101.367C108.407 99.1671 107.556 96.561 106.212 94.4345C105.567 93.4148 104.241 92.986 104.138 91.5577C101.625 91.2525 98.4705 89.7323 95.9661 90.0426C94.8566 90.1801 93.6546 91.3575 92.8061 90.19C93.9767 87.1591 95.1246 88.2285 97.3315 87.7463C97.9687 87.6069 98.5979 86.8426 98.8751 86.8408C99.4486 86.8368 102.805 89.275 103.111 88.9146C103.087 84.8201 105.645 79.9817 104.932 75.9494C104.873 75.6146 103.628 72.0583 103.499 71.8852C103.236 71.5296 99.4943 68.2097 98.8706 67.7048C97.0031 66.1933 94.9674 65.5102 93.1661 63.4957C91.7683 61.9323 90.6021 58.4759 89.4852 57.6413C87.2698 55.9869 81.9013 55.9872 79.348 54.5449C76.9758 54.1893 72.6698 55.1219 70.6005 54.0784C69.8528 53.7016 69.9817 52.5074 68.1381 53.0635C68.7076 49.7366 64.5591 48.0634 62.6088 46.3021C61.2747 45.0973 60.0142 43.8764 58.7361 42.6613L58.7357 42.6602ZM37.3547 65.2644C37.8488 64.6219 39.2672 64.327 37.7704 62.9454C35.4243 64.1942 32.9 65.5157 30.4195 66.609C28.6625 67.3835 24.9628 67.5456 25.0677 69.8887L31.461 71.7012C32.3114 71.3145 32.1501 70.2183 32.5676 69.653C33.8991 67.8496 35.7994 67.2869 37.3547 65.2644ZM30.96 72.8201C28.3304 72.4714 25.8393 70.6157 23.0746 70.9984C22.215 71.1173 18.1862 74.1226 18.8128 74.644L30.0164 75.7635L30.9596 72.8197L30.96 72.8201ZM206.253 115.327C206.088 115.425 206.022 115.973 205.836 116.175L205.274 116.354C203.426 113.114 199.99 113.138 196.594 113.588C196.01 113.995 196.346 115.63 196.153 116.443C195.952 117.29 194.912 118.413 194.599 119.288C193.77 121.601 194.194 124.433 192.575 126.418C192.57 127.349 201.549 127.873 203.025 128.464C203.882 128.808 206.495 130.962 207.118 131.714C207.795 132.534 208.554 134.666 208.863 134.92C209.34 135.311 215.332 137.822 216.212 138.075C218.152 138.632 222.386 134.887 222.381 133.006C222.379 132.305 220.711 130.466 221.283 129.161C219.006 129.48 219.826 128.955 219.22 128.12C216.483 124.346 214.926 120.749 211.365 117.99C210.457 117.286 207.265 114.721 206.253 115.327ZM68.1381 137.584C67.0551 137.181 65.4261 135.939 65.1964 137.938C66.36 138.184 67.9478 139.583 68.1381 137.584Z" fill="white"/>
<path d="M37.3545 65.2642C35.7991 67.2872 33.8985 67.8499 32.567 69.6529C32.1499 70.2182 32.3107 71.3144 31.4604 71.7011L25.0671 69.8885C24.9621 67.5458 28.6618 67.3834 30.4189 66.6088C32.8998 65.5152 35.4237 64.194 37.7697 62.9453C39.2669 64.3269 37.8485 64.6218 37.3545 65.2642Z" fill="white"/>
<path d="M30.9597 72.8199L30.0165 75.7637L18.8129 74.6442C18.1863 74.1224 22.2151 71.1175 23.0747 70.9986C25.8394 70.6155 28.3305 72.4712 30.96 72.8203L30.9597 72.8199Z" fill="white"/>
<path d="M58.0949 36.3211C58.2874 36.4667 58.2834 36.7601 58.3868 36.9584L58.0102 37.6913L56.3621 37.3199L56.7343 36.5977L55.6174 36.5925L55.9008 35.9252L55.2573 35.1338C55.9104 35.1451 57.6535 35.9874 58.0945 36.3214L58.0949 36.3211Z" fill="white"/>
<path d="M147.624 82.3611L147.072 84.8937C148.917 86.4944 151.411 86.4505 153.533 85.4092C153.898 85.23 155.384 82.6498 156.121 83.4291C156.044 89.6713 149.994 87.3081 146.81 88.2576C146.217 88.4347 145.819 89.2597 145.211 89.5952C143.272 90.6643 139.193 92.6503 138.823 89.2831C139.837 89.267 140.835 89.3812 141.847 89.1767C143.336 88.8756 145.825 86.8179 145.399 85.1418C145.2 84.3552 143.794 84.1459 143.648 83.5671C143.245 81.9678 146.557 81.6382 147.624 82.3611Z" fill="white"/>
<path d="M169.335 66.6338L169.583 67.697C169.093 68.5532 165.067 69.8572 164.028 70.6123C163.047 71.3258 161.312 73.7464 159.564 75.1404C159.326 75.3299 157.718 77.8215 157.228 75.9124C156.822 74.3289 159.587 72.6294 160.371 71.7348C160.836 71.2039 161.01 70.4506 161.275 70.1696C163.392 67.922 166.254 66.6331 169.335 66.6342L169.335 66.6338Z" fill="white"/>
<path d="M131.091 85.2602C130.713 87.6318 126.735 86.5481 124.695 86.7658C122.504 86.9992 120.005 88.0504 117.954 88.8535L116.737 87.9948L119.957 85.7154C123.863 85.3703 127.222 83.4169 131.091 85.2602H131.091Z" fill="white"/>
<path d="M81.025 90.7446C80.9789 89.1315 79.2473 89.3071 79.9239 87.0844C81.4281 87.3471 82.7865 85.9227 84.22 87.5622C85.4223 88.9368 83.2083 89.8306 82.9661 91.3004C83.4484 91.611 84.2222 93.0818 84.4361 93.2077C84.7718 93.4056 85.3582 93.2501 85.7941 93.5077C86.2075 93.7517 86.1169 94.6181 87.0884 94.613C88.6224 94.6053 89.3222 92.6684 90.406 92.9406C92.2846 93.4118 88.9169 96.3597 87.4212 96.4779C83.4439 96.7922 83.6781 92.0973 79.7604 92.5886C79.2009 92.6589 78.6785 93.1462 78.2658 93.1598C78.1105 93.1649 75.4957 92.5539 75.2383 92.454C74.4218 92.1379 73.1923 89.5244 73.6642 88.549C75.8715 87.7832 75.6897 90.7446 75.8711 90.7446H81.025Z" fill="white"/>
<path d="M65.6161 81.1763C66.19 81.5191 67.1346 80.8778 67.8091 81.4672C68.2412 81.8451 68.8792 84.1652 69.2429 84.8889C68.6432 85.4142 65.2137 83.654 64.4885 83.215C63.9621 82.8959 62.0394 81.0219 61.6359 80.9074C60.4185 80.5624 58.6769 81.4957 56.8156 80.6052C56.3437 80.3794 56.3705 79.9345 56.1025 79.7684C55.4333 79.3532 54.0079 79.5244 54.1529 78.3071C56.5148 78.7798 59.8041 77.3683 61.9904 78.0151C62.1366 78.0583 64.5419 79.2902 64.6652 79.3788C65.2863 79.8251 65.4519 81.0783 65.6161 81.1763Z" fill="white"/>
<path d="M117.047 128.124C117.601 128.475 118.055 130.582 117.836 131.352L115.631 131.353L116.707 130.97L116.731 129.159C115.853 129.656 115.474 129.345 114.9 128.613C115.272 127.998 116.579 127.828 117.047 128.124Z" fill="white"/>
</g>
<defs>
<clipPath id="clip0_45_291">
<rect width="232" height="142" fill="white"/>
</clipPath>
</defs>
</svg>
