<svg width="50" height="66" viewBox="0 0 50 66" fill="none" xmlns="http://www.w3.org/2000/svg">
<path d="M49.7457 61.6208C49.5913 61.7726 49.2168 61.8907 49.0045 61.9765C45.3443 63.4538 41.1135 64.1975 37.3936 65.5979C35.7702 65.7725 35.7293 62.863 35.9175 61.6566C36.3121 59.126 38.6049 58.939 38.3687 56.1298L34.3958 40.9258C30.6286 38.5745 26.5915 36.5774 25.073 31.7334C24.9963 31.6702 24.8893 31.8941 24.8518 31.9687C24.1212 33.4203 23.6962 34.5561 22.6303 35.8351C20.6458 38.2162 17.9385 39.2409 15.5688 40.9879L11.5545 56.6759C11.6508 58.6064 13.3054 59.1901 13.8827 60.9433C14.2862 62.1688 14.4605 65.794 12.6299 65.5979C8.98528 64.3182 5.11525 63.4553 1.49356 62.1421C0.587508 61.8137 -0.123827 61.8294 0.018105 60.5399C0.164729 59.2071 1.06424 57.6553 2.07838 56.903C3.15384 56.1053 4.61036 56.2658 5.43615 55.0947C7.1963 50.0097 8.22652 44.61 9.74722 39.4186L9.71538 38.8374C9.00539 37.1865 7.95925 35.6248 7.28109 33.9686C3.7891 25.4412 9.09453 19.5705 12.7849 12.6701L13.818 12.4944L25.0092 15.9951L36.2059 12.4944C36.6291 12.394 37.0662 12.442 37.3698 12.8008C40.5643 19.2607 45.5467 24.3906 43.2979 32.3867C42.6204 34.7957 41.1101 36.8375 40.1858 39.1257L44.2993 54.589C45.1668 56.5282 47.5917 55.9731 49.0322 58.0424C49.5236 58.7484 50.4481 60.9309 49.746 61.6208H49.7457ZM23.9292 17.9473L13.9707 14.8286L9.89652 22.0946C9.93808 22.3031 12.4937 22.9547 12.9057 23.0562C16.4886 23.9383 20.1469 24.1976 23.8208 24.0802L23.9292 17.9473ZM26.0779 17.9293V24.0794C30.8329 24.2514 35.589 23.7123 40.126 22.1645L36.0527 14.8286L26.0779 17.9293ZM26.2026 26.2655C26.0414 29.6987 27.4438 33.1488 29.8394 35.3566C31.4321 36.8244 33.5661 37.7346 35.3484 38.9079C36.3815 38.5834 37.5777 38.399 38.4987 37.8182C40.8866 33.5516 43.0675 29.1677 41.1279 24.0791C36.3416 25.8443 31.2516 26.4275 26.2026 26.2655ZM23.8208 26.2655C19.886 26.3983 15.9661 26.0694 12.1291 25.1328C11.6201 25.0084 9.11665 24.1032 8.88826 24.2754C8.60523 24.4886 8.17256 27.0729 8.14257 27.5664C7.89473 31.6631 9.91378 34.5675 11.559 37.9858L14.6749 38.9079C17.3152 37.277 20.0167 36.1269 21.862 33.3582C23.2232 31.316 23.8955 28.7877 23.8208 26.2655ZM12.154 63.167C12.5182 61.2654 10.9314 60.5845 10.2493 59.2986C9.62674 58.1251 9.37722 56.6861 9.70516 55.3733L13.505 40.9519L11.6021 40.3339L7.72968 54.9974C7.37996 56.0124 6.76447 56.9549 5.92377 57.5399C4.637 58.4355 2.67928 58.2425 2.24578 60.1602L12.1542 63.1672L12.154 63.167ZM38.4955 40.3426C38.4293 40.2705 36.8961 40.685 36.7037 40.7825C36.5795 40.8453 36.4644 40.8878 36.5065 41.0675L40.3209 55.507C40.4755 56.7966 40.4491 57.9578 39.851 59.1092C39.1529 60.4536 37.4018 61.244 37.933 63.1697L47.7776 60.1602C47.3893 58.3391 45.5956 58.4592 44.3987 57.7606C43.337 57.1409 42.6147 56.0233 42.2228 54.8013L38.4954 40.3428L38.4955 40.3426Z" fill="black"/>
<path d="M20.2775 0.0606808C22.4552 -0.259025 23.5357 1.08133 24.9034 2.61193C25.6984 2.10618 26.1573 1.14469 26.952 0.635822C30.2511 -1.47723 34.0075 2.03205 32.6974 5.93954C31.9112 8.28484 27.0584 11.9309 25.5817 14.1759C25.1863 14.5584 24.7137 14.5605 24.3161 14.1759C22.4726 11.7182 19.4651 9.44881 17.7334 6.99889C15.9257 4.44125 17.338 0.492493 20.2773 0.0608634L20.2775 0.0606808ZM20.5258 2.24531C18.9907 2.51918 18.4062 4.6839 19.4896 5.9054L24.9034 11.7691L25.2034 11.5785C26.6966 9.6261 28.9914 7.85668 30.4064 5.90339C31.9338 3.79527 29.9831 1.35082 28.0185 2.48157C27.1185 2.99956 26.2549 4.62949 25.5202 5.08943C25.1854 5.29903 24.7152 5.30068 24.3776 5.08943C23.7448 4.69376 22.8477 3.18196 22.1058 2.6448C21.5889 2.27032 21.1508 2.13375 20.5258 2.24531Z" fill="black"/>
<path d="M39.9707 6.89061C40.8865 6.63262 41.5246 7.49789 41.1601 8.46431C41.1078 8.60289 39.4318 10.5909 39.2955 10.6677C38.3424 11.2056 37.4238 10.311 37.8387 9.21674C37.8861 9.09167 39.3373 7.37756 39.5124 7.21451C39.6283 7.10661 39.8333 6.92932 39.9709 6.89061H39.9707Z" fill="black"/>
<path d="M9.23566 6.88566C9.60314 6.7982 9.83254 6.85718 10.1424 7.07007C10.3311 7.1997 11.7946 8.93554 11.8875 9.13072C12.3647 10.1333 11.5707 11.22 10.6025 10.6674C10.4247 10.5658 8.75088 8.74236 8.65905 8.5501C8.35307 7.90831 8.5503 7.04871 9.23566 6.88566Z" fill="black"/>
<path d="M39.7038 11.6868C40.0471 11.6605 42.1412 11.9371 42.4181 12.0838C43.3082 12.5557 43.1406 13.9714 42.2026 14.1088C41.6529 14.1893 39.6337 13.986 39.2019 13.6744C38.3946 13.0917 38.792 11.7567 39.7038 11.6868Z" fill="black"/>
<path d="M9.98403 11.6902C11.025 11.7254 11.427 13.2093 10.5152 13.7505C10.1281 13.9804 8.05228 14.179 7.57018 14.1087C6.67921 13.9789 6.52622 12.5839 7.27241 12.1308C7.56733 11.9518 9.59007 11.6768 9.98403 11.6902Z" fill="black"/>
<path d="M34.5716 6.75191C35.5814 6.50378 35.7622 7.23211 36.0804 8.05556C36.3919 8.86186 36.9945 10.3006 36.013 10.7874C34.9919 11.2939 34.6802 10.2732 34.3881 9.4894C34.096 8.70557 33.4103 7.03729 34.5716 6.75191Z" fill="black"/>
<path d="M14.5007 6.75131C15.1901 6.52673 15.9194 6.93207 15.9227 7.7453C15.9241 8.07998 15.2188 10.1945 15.0234 10.4631C14.5632 11.0955 13.4799 10.9896 13.311 10.1784C13.1753 9.5266 13.8883 6.95106 14.5006 6.7515L14.5007 6.75131Z" fill="black"/>
<path d="M38.0829 26.4311C39.7406 25.8854 39.9962 28.9652 39.8616 30.1464C39.7445 31.1754 38.8436 33.3117 37.7375 32.0809C37.1091 31.3817 37.8481 30.3408 37.8752 29.4827C37.9049 28.5396 36.9323 26.8098 38.0829 26.4311Z" fill="black"/>
<path d="M37.8333 33.0012C38.4542 33.6755 37.8544 34.8128 37.4204 35.4126C37.0804 35.8827 36.8976 36.0583 36.31 35.9621C34.461 35.6592 36.481 31.5321 37.8333 33.0012Z" fill="black"/>
<path d="M19.6466 28.4799C21.7267 27.9854 20.7869 31.3744 20.112 32.4078C19.5466 33.2734 17.7953 34.8968 17.2676 33.1977C16.9199 32.0781 18.1723 31.8069 18.6075 30.9053C19.0073 30.0769 18.7357 28.6964 19.6466 28.4799Z" fill="black"/>
<path d="M16.631 33.5534C17.0655 33.9866 17.007 34.6936 16.6077 35.1492C16.4461 35.3336 15.3098 36.072 15.092 36.1037C14.0519 36.2554 13.4862 34.9418 14.2215 34.1899C14.7478 33.6516 16.0012 32.9256 16.631 33.5534Z" fill="black"/>
</svg>
