<svg width="63" height="83" viewBox="0 0 63 83" fill="none" xmlns="http://www.w3.org/2000/svg">
<path d="M62.6797 77.696C62.4853 77.8872 62.0134 78.036 61.7458 78.1441C57.1339 80.0055 51.8031 80.9425 47.116 82.7071C45.0705 82.927 45.019 79.2611 45.2561 77.7411C45.7534 74.5525 48.6424 74.3169 48.3447 70.7772L43.3388 51.6201C38.5922 48.6575 33.5054 46.1411 31.5921 40.0377C31.4954 39.9581 31.3607 40.2401 31.3134 40.3342C30.3928 42.1632 29.8573 43.5944 28.5143 45.2059C26.0138 48.2061 22.6026 49.4972 19.6167 51.6984L14.5587 71.4653C14.6801 73.8977 16.7648 74.6332 17.4922 76.8422C18.0006 78.3864 18.2202 82.9542 15.9137 82.7071C11.3215 81.0946 6.44523 80.0074 1.88189 78.3528C0.740262 77.9389 -0.156022 77.9587 0.0228124 76.334C0.207559 74.6546 1.34095 72.6994 2.61876 71.7515C3.97385 70.7464 5.80907 70.9486 6.84956 69.473C9.06736 63.0659 10.3654 56.2622 12.2815 49.721L12.2414 48.9887C11.3468 46.9086 10.0287 44.9409 9.1742 42.854C4.77428 32.1095 11.4591 24.7124 16.1091 16.0179L17.4107 15.7966L31.5116 20.2074L45.6195 15.7966C46.1528 15.67 46.7035 15.7305 47.0861 16.1826C51.1112 24.322 57.389 30.7857 54.5555 40.8608C53.7019 43.8962 51.7989 46.4689 50.6342 49.352L55.8173 68.8358C56.9104 71.2792 59.9657 70.5798 61.7807 73.1871C62.4 74.0767 63.5648 76.8266 62.6801 77.696H62.6797ZM30.1508 22.6672L17.6031 18.7376L12.4697 27.8927C12.522 28.1555 15.7421 28.9765 16.2613 29.1044C20.7756 30.2159 25.3852 30.5425 30.0142 30.3946L30.1508 22.6672ZM32.8583 22.6444V30.3937C38.8495 30.6104 44.8423 29.931 50.5589 27.9808L45.4265 18.7376L32.8583 22.6444ZM33.0154 33.1482C32.8122 37.4739 34.5793 41.8211 37.5977 44.6029C39.6046 46.4524 42.2934 47.5992 44.5391 49.0775C45.8408 48.6687 47.3481 48.4364 48.5085 47.7046C51.5172 42.3286 54.2652 36.8049 51.8213 30.3932C45.7905 32.6174 39.3772 33.3522 33.0154 33.1482ZM30.0142 33.1482C25.0565 33.3154 20.1173 32.9011 15.2827 31.7209C14.6414 31.5642 11.487 30.4236 11.1992 30.6405C10.8426 30.9092 10.2975 34.1655 10.2597 34.7873C9.94739 39.9491 12.4914 43.6086 14.5644 47.9158L18.4905 49.0775C21.8172 47.0227 25.2212 45.5736 27.5462 42.085C29.2613 39.5118 30.1084 36.3262 30.0142 33.1482ZM15.3141 79.6441C15.7729 77.2481 13.7736 76.3902 12.9141 74.7699C12.1297 73.2913 11.8153 71.4782 12.2285 69.8241L17.0163 51.653L14.6186 50.8743L9.73942 69.3504C9.29877 70.6293 8.52326 71.8169 7.46398 72.554C5.84264 73.6824 3.37591 73.4392 2.82969 75.8555L15.3143 79.6443L15.3141 79.6441ZM48.5045 50.8853C48.4211 50.7945 46.4892 51.3167 46.2468 51.4395C46.0903 51.5187 45.9453 51.5723 45.9983 51.7987L50.8044 69.9925C50.9993 71.6174 50.9659 73.0806 50.2124 74.5313C49.3328 76.2252 47.1264 77.2211 47.7957 79.6476L60.1999 75.8555C59.7107 73.5609 57.4507 73.7123 55.9425 72.8321C54.6047 72.0513 53.6947 70.6431 53.2009 69.1033L48.5043 50.8856L48.5045 50.8853Z" fill="#79283B"/>
<path d="M25.5497 0.130169C28.2937 -0.272661 29.6551 1.41619 31.3784 3.34476C32.38 2.7075 32.9583 1.49602 33.9596 0.854849C38.1165 -1.8076 42.8496 2.6141 41.1989 7.53755C40.2082 10.4926 34.0936 15.0866 32.2331 17.9154C31.7348 18.3974 31.1394 18.3999 30.6384 17.9154C28.3156 14.8186 24.5261 11.9592 22.3442 8.87234C20.0664 5.6497 21.8459 0.674254 25.5495 0.130399L25.5497 0.130169ZM25.8626 2.8828C23.9284 3.22789 23.1919 5.95545 24.5569 7.49453L31.3784 14.8828L31.7563 14.6426C33.6378 12.1826 36.5293 9.95315 38.3122 7.492C40.2367 4.83576 37.7789 1.75575 35.3035 3.1805C34.1694 3.83317 33.0812 5.88689 32.1556 6.4664C31.7337 6.73051 31.1413 6.73258 30.7158 6.4664C29.9186 5.96787 28.7881 4.063 27.8534 3.38617C27.2021 2.91432 26.6502 2.74224 25.8626 2.8828Z" fill="#79283B"/>
<path d="M50.3632 8.73598C51.517 8.4109 52.321 9.50115 51.8618 10.7188C51.7959 10.8935 49.6841 13.3983 49.5125 13.4952C48.3115 14.1729 47.1541 13.0456 47.6768 11.6669C47.7366 11.5093 49.565 9.34954 49.7857 9.1441C49.9318 9.00813 50.19 8.78475 50.3634 8.73598H50.3632Z" fill="#79283B"/>
<path d="M11.6369 8.72978C12.1 8.61958 12.389 8.69389 12.7794 8.96214C13.0172 9.12548 14.8612 11.3126 14.9782 11.5586C15.5795 12.8218 14.5792 14.1911 13.3592 13.4947C13.1352 13.3668 11.0261 11.0692 10.9104 10.827C10.5249 10.0183 10.7734 8.93522 11.6369 8.72978Z" fill="#79283B"/>
<path d="M50.0268 14.7789C50.4595 14.7458 53.0981 15.0943 53.4469 15.2792C54.5684 15.8738 54.3573 17.6575 53.1753 17.8307C52.4828 17.9321 49.9386 17.6759 49.3945 17.2833C48.3772 16.5491 48.878 14.867 50.0268 14.7789Z" fill="#79283B"/>
<path d="M12.5799 14.7833C13.8915 14.8277 14.398 16.6974 13.2492 17.3794C12.7615 17.669 10.1459 17.9192 9.53843 17.8307C8.41581 17.6671 8.22304 15.9094 9.16324 15.3385C9.53485 15.1129 12.0835 14.7665 12.5799 14.7833Z" fill="#79283B"/>
<path d="M43.5603 8.56123C44.8326 8.24858 45.0604 9.16628 45.4614 10.2038C45.8539 11.2198 46.6131 13.0326 45.3765 13.646C44.0898 14.2841 43.6971 12.9981 43.3291 12.0105C42.9611 11.0228 42.0971 8.92081 43.5603 8.56123Z" fill="#79283B"/>
<path d="M18.2711 8.56012C19.1397 8.27715 20.0586 8.78787 20.0628 9.81255C20.0645 10.2342 19.1758 12.8985 18.9297 13.2369C18.3499 14.0339 16.9849 13.9004 16.772 12.8783C16.601 12.057 17.4994 8.8118 18.2709 8.56035L18.2711 8.56012Z" fill="#79283B"/>
<path d="M47.9845 33.3566C50.0733 32.669 50.3953 36.5496 50.2257 38.0378C50.0781 39.3344 48.943 42.0261 47.5493 40.4753C46.7575 39.5944 47.6887 38.2829 47.7229 37.2016C47.7602 36.0133 46.5348 33.8338 47.9845 33.3566Z" fill="#79283B"/>
<path d="M47.6701 41.6354C48.4523 42.485 47.6967 43.918 47.1498 44.6738C46.7214 45.266 46.4911 45.4873 45.7506 45.3661C43.4209 44.9845 45.9662 39.7843 47.6701 41.6354Z" fill="#79283B"/>
<path d="M24.7548 35.9383C27.3756 35.3153 26.1916 39.5854 25.3411 40.8875C24.6287 41.9782 22.4221 44.0236 21.7572 41.8827C21.3191 40.472 22.8972 40.1304 23.4455 38.9944C23.9493 37.9506 23.607 36.2111 24.7548 35.9383Z" fill="#79283B"/>
<path d="M20.9552 42.3311C21.5026 42.8769 21.429 43.7677 20.9258 44.3418C20.7223 44.5741 19.2905 45.5045 19.0161 45.5445C17.7055 45.7357 16.9927 44.0806 17.9192 43.1332C18.5824 42.4549 20.1617 41.5401 20.9552 42.3311Z" fill="#79283B"/>
</svg>
