<svg width="54" height="69" viewBox="0 0 54 69" fill="none" xmlns="http://www.w3.org/2000/svg">
<g clip-path="url(#clip0_40_135)">
<path d="M16.2282 0.0439436C18.5194 0.485686 20.695 2.26891 21.1014 4.61372C21.3093 5.81451 21.2786 8.9392 21.1455 10.1916C21.0027 11.5363 20.3063 12.7123 19.5178 13.7758H21.505C21.8953 13.7758 23.0087 14.0371 23.4291 14.1746C24.1043 14.3951 24.7008 14.826 25.3416 15.1177L27.2991 14.1487C28.4281 11.2076 29.1611 7.87317 30.3778 4.9897C31.5666 2.17199 33.6183 0.652367 36.6499 0.0439436C37.2224 0.0888634 37.8726 -0.0183706 38.4317 0.0439436C45.9391 0.879642 45.6014 9.89743 48.1314 14.9504C48.2923 15.2717 49.1251 15.9249 49.4277 16.3701C51.3817 19.2455 50.1226 24.3067 50.507 27.6954L53.9199 41.1753C54.1973 41.6234 53.3681 42.5856 53.0281 42.5856H48.5738C49.4705 45.9359 50.1082 49.4178 50.3543 52.8858C50.4241 53.8704 50.2387 54.8722 50.4984 55.8408C50.171 59.5957 50.9175 64.0196 50.4926 67.6933C50.4321 68.2172 50.2644 68.6158 49.7718 68.87L25.8879 68.9759C25.672 68.9524 25.2562 68.8358 25.0975 68.711C24.8549 68.5204 24.9704 68.0804 24.659 68.1635C24.5533 68.1918 24.4082 68.8778 23.5641 68.9751L4.65486 68.9644C2.14505 67.898 5.0243 66.2287 5.94916 65.1352V43.6624H0.946473C0.632675 43.6624 0.0622735 42.8915 0.186198 42.5245C0.591821 35.2249 -0.330704 27.4018 0.186587 20.164C0.282691 18.8189 0.797453 17.533 1.64333 16.4792C3.42515 14.2594 6.03787 13.6281 8.82665 13.7747L7.66483 11.7537C7.02654 10.157 7.03802 7.10151 7.1777 5.35652C7.39695 2.61966 9.47662 0.644913 12.1166 0.0439436H16.2282ZM14.7205 2.3339C13.4054 2.2733 11.86 2.59481 11.0201 3.67747C12.0796 3.30168 13.2434 3.07326 14.2785 2.63878C14.4474 2.56786 14.683 2.5669 14.7205 2.3339ZM41.5825 4.75574C40.0127 1.36975 34.5846 1.63735 33.3611 5.15906C33.5566 5.35097 37.7568 3.55246 38.6369 3.53316C39.5822 3.51251 40.6888 4.43633 41.5825 4.75574ZM15.0981 4.78078L9.53128 6.72628C9.51786 8.3952 9.28597 9.86245 10.0805 11.4006C11.5724 14.2891 15.7187 14.6389 17.8062 12.162C19.1906 10.5192 18.8544 8.49918 18.7657 6.50436L15.0981 4.78078ZM42.2467 7.60442L38.555 5.89708L32.9683 7.73631C32.4014 11.164 34.5095 14.135 38.2247 13.7745C41.3181 13.4742 42.6918 10.352 42.2467 7.60442ZM32.2639 13.7756C31.6713 12.9357 31.0764 12.0939 30.8248 11.0818L29.934 13.7756H32.2641H32.2639ZM45.2845 13.7756L44.3937 11.0818C44.1717 11.5782 43.9764 12.0859 43.7106 12.5662C43.4735 12.995 43.0986 13.3283 42.9544 13.7756H45.2845ZM9.51241 16.0644H7.11389C5.30541 16.0644 2.52247 18.0168 2.52247 19.9013V36.7969H5.94896V21.8533H8.27901V36.7969H20.066V21.8533H22.396V26.4306H25.8225V19.7666C25.8225 17.9799 22.9419 16.0644 21.2311 16.0644H19.0382L18.8326 16.2663V21.1128C18.8326 21.2497 18.4235 21.6771 18.2503 21.7515C17.0658 22.2605 15.3032 20.2739 14.2188 19.8562C13.1159 20.2171 10.9347 22.7246 9.82971 21.5422C9.78069 21.4898 9.51241 21.0102 9.51241 20.9781V16.0644ZM49.0534 40.297H51.1093L51.2628 40.0191L48.1771 27.9645C47.4978 24.1106 50.3132 16.5521 44.3915 16.0663C39.262 15.6456 33.3127 16.2231 28.1444 16.2584L27.0641 16.7497C27.5164 17.9214 28.2541 19.0494 28.1538 20.3723C28.4734 20.2083 28.5014 19.8234 28.872 19.6657C29.385 19.4474 29.9152 19.6668 30.3846 19.5359C30.7418 19.4363 31.6985 18.4924 32.3506 18.2361C34.8371 17.2583 36.1123 18.7741 37.6765 20.3484C39.4945 19.0643 41.1002 17.2885 43.5538 18.3703C44.3225 18.7092 44.5112 19.0676 45.0111 19.6313C45.3806 20.048 45.7385 19.9711 45.7558 20.79C45.7985 22.8154 44.6892 25.5406 44.6604 27.6488L49.0537 40.297H49.0534ZM12.9385 17.9474L11.8438 17.1414L11.8432 18.4868L12.9385 17.9474ZM16.5018 18.487L16.4347 17.1421C16.3327 17.3912 15.4438 17.6274 15.5442 17.88C15.5979 18.0149 16.4101 18.5912 16.5018 18.4868V18.487ZM32.6765 26.4292L42.4157 26.3725C42.5237 25.1646 43.56 21.9443 43.1254 20.9448C42.292 19.0282 39.263 22.2855 38.3414 22.7737C36.36 23.8231 35.4295 20.3626 33.8229 20.2425C33.1911 20.1953 32.0582 20.9727 31.9828 21.6475C31.8335 22.9813 32.7181 25.018 32.6767 26.4294L32.6765 26.4292ZM30.6192 31.0078V28.921L30.4136 28.7192H22.3957V31.0078H30.6192ZM42.269 28.7192H32.9493V31.0078H42.269V28.7192ZM25.8223 33.2964H22.3959V36.7967H25.8223V33.2964ZM28.2894 33.2964V36.9313L29.5883 34.1011L29.799 33.3654L28.2894 33.2964ZM48.1625 66.6836C48.1532 59.6731 48.4283 52.7039 47.0025 45.8116C46.1128 41.5106 44.6294 37.2891 42.6828 33.3612L32.8728 33.2888C32.3182 33.3442 31.9779 34.3594 31.7351 34.8636C28.835 40.888 27.5176 47.8713 27.0501 54.4945L27.0558 66.6836H48.1625ZM5.94896 39.0853H2.52266V41.3739H5.94916L5.94896 39.0853ZM20.0658 39.0853H8.48445L8.27881 39.2872V65.9431C8.27881 66.107 7.79304 66.4864 7.73059 66.6836H13.0759V42.5856H15.4059V66.6836H21.2994C21.2218 66.2369 20.0658 65.0556 20.0658 64.7316V39.0853ZM25.8223 39.0853H22.3959V41.3739H25.8223V39.0853ZM26.2334 43.6627H22.3959V64.0586L24.7243 67.4909C24.7788 59.4948 24.2537 51.4805 26.2334 43.6627Z" fill="white"/>
<path d="M32.9492 62.1064H30.6192V64.3951H32.9492V62.1064Z" fill="white"/>
<path d="M38.7058 62.1064H36.3757V64.3951H38.7058V62.1064Z" fill="white"/>
<path d="M44.5991 62.1064H42.269V64.3951H44.5991V62.1064Z" fill="white"/>
<path d="M15.4061 27.6423H13.076V29.9309H15.4061V27.6423Z" fill="white"/>
<path d="M15.4061 32.2195H13.076V34.5081H15.4061V32.2195Z" fill="white"/>
<path d="M15.4059 23.0648V25.1516L15.2003 25.3534H13.076V23.0648H15.4059Z" fill="white"/>
</g>
<defs>
<clipPath id="clip0_40_135">
<rect width="54" height="69" fill="white"/>
</clipPath>
</defs>
</svg>
