<svg width="70" height="69" viewBox="0 0 70 69" fill="none" xmlns="http://www.w3.org/2000/svg">
<g clip-path="url(#clip0_40_175)">
<path d="M0.105381 57.2112C0.288037 55.3485 1.24343 53.314 2.61973 52.0481C3.26176 46.4956 4.88981 40.4483 5.29121 34.9068C5.62754 30.2631 4.55749 27.0056 7.36679 22.7324C12.3454 15.1595 23.2375 14.8604 28.69 22.1112C32.0372 26.5623 30.8696 29.9016 31.2322 34.9066C31.6242 40.3175 33.2812 46.0872 33.722 51.5504L33.96 52.1274L35.1196 53.2788C37.5751 49.8636 41.9614 49.0755 45.7817 48.004L46.0916 47.7694L46.0414 45.2804C43.0622 43.3428 39.9762 39.4974 39.6893 35.862C39.4452 32.7697 39.4016 26.9223 40.586 24.1341C44.981 13.7865 60.6685 14.7204 63.6225 25.6505C64.2319 27.9053 64.1915 33.4158 63.9984 35.8618C63.7135 39.4727 60.5735 43.3933 57.6076 45.3082L57.5962 47.7693C57.6955 48.0632 60.6807 48.731 61.2314 48.9042C65.5366 50.2575 69.5055 52.1635 70.0002 57.2105V67.9212C69.6653 68.4885 69.3022 68.8783 68.5738 68.8772L24.3334 68.8736C23.1753 68.816 22.6133 67.3983 23.388 66.5726C23.4639 66.4918 24.0239 66.1589 24.0636 66.1589H27.2716L27.409 59.0402C27.2676 58.303 24.8867 57.7979 24.1983 57.7559C23.0747 57.6872 21.5148 57.9533 20.49 58.407C19.785 58.7191 18.9658 59.614 18.3185 59.6432C17.5655 59.677 17.1845 59.0261 16.6693 58.7245C14.5618 57.4907 11.0844 57.3244 9.11533 58.9054V66.1589H12.4598C12.4996 66.1589 13.0596 66.4918 13.1354 66.5726C13.8717 67.3574 13.4012 68.7122 12.3145 68.8616C8.88163 68.5781 4.74726 69.2699 1.39911 68.8736C0.694366 68.7901 0.449183 68.4742 0.105381 67.9212C0.352751 64.4848 -0.226025 60.5922 0.105381 57.2105V57.2112ZM28.5 33.214V28.8078C28.5 23.8905 23.0867 19.5383 18.3322 19.51C13.6363 19.4821 8.02322 23.7865 8.02322 28.6722V32.4006C9.07541 31.9277 10.2324 31.1258 11.091 30.3633C11.6395 29.8763 13.0153 28.0721 13.4489 27.9607C14.5453 27.6792 15.9531 29.0304 16.9413 29.5767C20.4473 31.5145 24.562 32.542 28.5 33.214ZM61.2447 28.9927C61.47 21.761 53.6155 17.3395 47.2475 20.7181C44.8192 22.0066 42.5912 24.9273 42.4231 27.7245C42.3972 28.1549 43.2744 27.7964 43.579 27.7854C48.4331 27.6102 49.441 29.66 53.3384 30.4417C56.0771 30.9911 58.7322 29.9668 61.2447 28.9927ZM61.2631 31.8583C58.0131 33.2495 54.7652 33.8401 51.3288 32.7087C49.5788 32.1325 47.8107 30.8427 46.0073 30.5368C44.8562 30.3416 43.54 30.458 42.4244 30.7736V35.9933C42.4244 37.6244 44.8822 40.8712 46.1083 41.9606C49.9609 45.3842 53.7247 45.3562 57.5792 41.9606C58.8091 40.8772 61.2631 37.6256 61.2631 35.9933V31.8583ZM26.8549 35.661C22.4217 34.8959 18.0983 33.469 14.2313 31.1822C13.4418 31.7476 12.8107 32.4698 12.0446 33.0729C11.6071 33.4172 9.96663 34.383 9.78817 34.6282C9.58272 34.911 9.62556 36.2471 9.6633 36.6691C10.0215 40.6591 14.8349 45.471 19.013 45.0102C22.6744 44.6063 27.2947 39.4606 26.8549 35.661ZM5.83973 49.8893L12.302 47.9707C12.6264 47.7798 12.6237 46.0145 12.4611 45.6858C12.3756 45.5128 11.2753 44.7776 11.0248 44.5364C9.51035 43.0783 8.17106 41.1619 7.47543 39.1804L5.83973 49.8893ZM30.6835 49.8893L29.1151 39.18C28.2725 41.1727 27.066 43.0274 25.4986 44.5364C25.248 44.7776 24.1478 45.513 24.0623 45.6858C23.8995 46.0149 23.897 47.7789 24.2217 47.9705L30.6837 49.8893H30.6835ZM54.8463 46.7722C52.7937 47.4364 50.8937 47.4364 48.8411 46.7722L48.8684 48.1675L51.8932 50.8293L54.8173 48.3708L54.8463 46.7722ZM21.2649 47.1784C19.3716 47.9439 17.1584 47.9462 15.2584 47.1784V49.1443C15.2584 49.4323 14.7498 49.9824 14.4756 50.1293C12.9774 50.9317 9.78634 51.3731 7.95249 52.0568C5.67494 52.9061 2.83575 54.6329 2.83575 57.4146V66.1594H6.38515V58.7705C6.38515 58.4448 6.67481 57.6546 6.87241 57.3563C8.77827 54.4761 15.621 54.4969 18.2182 56.5124C20.6752 54.452 28.5336 54.521 29.853 57.6983C29.9228 57.8662 30.1385 58.6508 30.1385 58.7705V66.1594H33.6879V57.4146C33.6879 57.2643 33.3661 56.146 33.2836 55.9182C31.8234 51.8864 25.5404 51.4354 22.0484 50.1291C21.7707 50.0188 21.2652 49.3983 21.2652 49.1443V47.1784H21.2649ZM47.0364 50.4559C46.8052 50.4669 45.3053 50.8878 45.2944 51.0416L47.2706 54.9039L49.7935 52.6697L47.4115 50.5573C47.2983 50.4319 47.1864 50.4488 47.0364 50.456V50.4559ZM56.4836 54.9061L58.3933 51.0414C58.3842 50.9159 56.8728 50.4339 56.6863 50.4419C56.1894 50.4629 54.4664 52.3448 53.894 52.6694L56.4834 54.9061H56.4836ZM36.4179 57.4146V66.1594H47.0659L40.0548 61.6661C39.6295 61.2981 39.4567 60.7047 39.5921 60.1615L41.4674 52.0593C38.9452 52.9637 36.7223 54.5538 36.4177 57.4146H36.4179ZM67.2698 66.1594V57.4146C67.2698 57.1685 66.8755 55.9312 66.7479 55.628C65.9484 53.7284 64.0254 52.7918 62.2202 52.0592L64.0954 60.1614C64.2308 60.7045 64.0582 61.2979 63.6328 61.6659L56.6216 66.1592H67.2696L67.2698 66.1594ZM48.4296 63.719L43.7912 54.2296L42.4929 59.9306L48.4296 63.719ZM55.2579 63.719L61.1946 59.9306L59.8963 54.2296L55.2579 63.719ZM51.9783 64.2609L55.1174 57.5463C55.1092 57.1746 52.2851 54.8919 51.7944 54.5096L48.57 57.5465L51.6746 64.0867L51.9783 64.2609Z" fill="#79283B"/>
<path d="M29.4277 0.0373338C31.4869 -0.175486 33.4797 0.530714 35.0046 1.88461C38.9031 -1.49751 44.872 -0.175124 46.1796 5.01279C47.5012 10.2574 44.2001 12.3198 40.9876 15.4497C39.8652 16.5431 38.7999 17.7153 37.6485 18.7767C37.2934 19.104 35.7848 20.5113 35.5022 20.576C35.0618 20.6769 34.5113 20.6488 34.1655 20.334C31.5425 17.4911 27.9714 14.9099 25.4935 11.9993C22.0394 7.94282 23.7756 0.621275 29.4277 0.0373338ZM29.5592 2.74495C26.8082 3.13183 25.8069 6.72368 26.7561 8.98301C27.3529 10.4036 31.7572 14.3785 33.1397 15.6587C33.3827 15.8836 34.9747 17.3638 35.1023 17.3417L42.6741 10.0748C45.5687 6.19879 41.9513 0.37857 37.1923 3.68153C36.5249 4.14467 36.0611 4.93907 35.0997 4.96697C34.09 4.99631 33.6018 4.15934 32.9133 3.68153C31.928 2.99761 30.777 2.5736 29.5592 2.74495Z" fill="#79283B"/>
<path d="M54.8463 46.7722L54.8173 48.3706L51.8932 50.8292L48.8684 48.1674L48.8411 46.772C50.8937 47.4362 52.7937 47.4362 54.8463 46.772V46.7722Z" fill="#79283B"/>
<path d="M17.9538 66.1883C19.9008 65.8177 20.2153 68.6642 18.4532 68.8676C16.6547 69.0752 16.3463 66.4944 17.9538 66.1883Z" fill="#79283B"/>
</g>
<defs>
<clipPath id="clip0_40_175">
<rect width="70" height="69" fill="white"/>
</clipPath>
</defs>
</svg>
