<svg width="70" height="70" viewBox="0 0 70 70" fill="none" xmlns="http://www.w3.org/2000/svg">
<path d="M15.0097 23.0605C11.8094 20.6734 8.8645 17.9321 6.57492 14.6434C4.42461 11.5546 3.37607 8.21977 5.485 4.73472C8.33987 0.017374 13.9275 1.0105 18.3553 2.59024C24.4816 4.77592 28.6111 9.41688 30.9402 15.3855C31.1531 15.9309 31.2802 16.6369 31.5075 17.1378C31.5802 17.2981 31.4424 17.3843 31.7921 17.3298C33.4429 10.9175 37.9894 5.36563 44.1744 2.89758C48.704 1.09016 54.8306 -0.216506 57.8288 4.73472C60.4521 9.06688 58.1724 13.0002 55.3959 16.4386C53.3548 18.9664 50.8811 21.1005 48.3042 23.0603H60.5167C61.1756 23.0603 62.0791 24.1417 62.1896 24.7986C62.4125 26.1255 62.3735 30.5902 62.2227 31.9983C62.1013 33.1327 61.1866 33.9856 60.0391 33.9765V38.4795C64.7555 37.5877 68.3492 40.9182 68.7544 45.5243C69.2967 51.6878 63.743 54.6343 60.1098 58.5405C59.7643 60.9303 60.3346 63.7608 60.0274 66.0994C59.8391 67.5331 58.4316 68.8574 56.9746 68.914L5.96862 68.8753C4.56771 68.5652 3.46448 67.4057 3.27398 65.9754L3.28255 34.0552C2.02747 33.8339 1.20351 33.1981 1.08594 31.867C0.954321 30.3764 0.891248 26.1846 1.12422 24.7986C1.23469 24.1417 2.13812 23.0603 2.79711 23.0603H15.0096L15.0097 23.0605ZM30.5654 23.0605C29.9289 17.163 27.5806 11.1481 22.7759 7.44831C19.2415 4.7267 9.95752 0.785369 7.17903 6.15568C5.31055 9.76706 7.86573 12.9655 10.1012 15.6201C12.9887 19.0488 17.1139 22.9001 21.8324 23.059C18.4315 20.1987 15.4986 16.8095 12.9881 13.1426C11.7874 11.3887 9.58219 8.94401 12.0041 7.16011C13.3224 6.18904 15.246 7.02448 16.6451 7.57537C23.1221 10.1256 27.0997 16.3585 28.2458 23.0605H30.5654ZM32.7485 23.0605H35.0682C36.1448 16.8053 39.7358 10.7722 45.6192 8.02672C47.2591 7.26146 50.184 5.93347 51.6668 7.41714C53.4997 9.25136 51.4316 11.5273 50.3258 13.1426C47.8153 16.8097 44.8822 20.1989 41.4816 23.059C46.4829 22.8536 50.8069 18.6332 53.7586 14.9378C55.8062 12.374 57.8864 9.53938 56.1349 6.15568C53.3623 0.798859 44.0672 4.71558 40.538 7.44831C35.7496 11.1561 33.3599 17.1535 32.7485 23.0605ZM25.925 22.7871C24.9862 16.8609 21.1072 11.4478 15.353 9.41323C14.7892 9.21381 12.7216 8.33862 13.2058 9.5124C13.6996 10.7099 15.9022 13.5161 16.7893 14.663C19.1904 17.7678 22.2092 21.3347 25.925 22.7871ZM37.3888 22.7871C40.8828 21.4552 43.6868 18.2172 45.9787 15.3452C46.991 14.0768 49.5542 10.8541 50.108 9.51222C50.1966 9.29748 50.3123 9.11883 50.083 8.93053C49.5746 8.58399 46.2735 10.1222 45.62 10.4835C41.1474 12.9564 38.1783 17.7915 37.3888 22.7871ZM20.7408 25.2438H3.27489V31.7935H15.8284C16.7951 29.1687 18.8555 27.2133 20.7408 25.2438ZM28.3821 25.2438H24.3567C24.1819 25.2438 21.9253 27.1404 21.6242 27.4235C15.8889 32.81 15.0433 39.3896 18.2605 46.4862C18.6822 47.4165 19.2063 48.5516 19.9207 49.2595C20.1179 48.1001 20.3737 43.7674 21.01 43.0471C22.0792 41.8371 23.0916 43.7526 23.8139 44.3441C25.0713 45.3739 26.7639 46.0199 28.3814 46.1202C27.9107 45.0966 27.2393 44.1948 26.7641 43.1678C23.9677 37.1254 24.9649 30.7742 28.3821 25.2438ZM36.0234 25.2438H30.9747C26.755 31.1094 25.902 37.9052 29.8264 44.199C30.8992 45.9195 33.5122 48.0859 29.5475 48.3099C28.7883 48.3527 28.0363 48.2798 27.2905 48.1677V66.7252H36.0234V25.2438ZM60.0391 25.2438H38.2067V31.7935H60.0391V25.2438ZM14.8734 33.9767H5.4582V65.9747C5.4582 66.1353 6.04864 66.7252 6.2087 66.7252H25.1074V47.6901L22.5163 46.1211L21.6805 53.1326C20.4929 54.4668 19.602 52.9095 18.9137 51.9734C15.2578 47.0014 13.0412 40.0707 14.8734 33.9767ZM57.8558 33.9767H38.2067V66.7252H57.1054C57.266 66.7252 57.8559 66.1347 57.8559 65.9747V60.7212C56.6674 61.3846 55.3698 64.2486 53.8306 63.1774L42.7139 52.4618C36.1029 44.6004 44.7787 33.2081 53.0083 40.8029C53.585 41.3352 54.0377 41.9563 54.5145 42.5728L54.7211 42.5083C55.5995 41.3513 56.68 40.3416 57.8561 39.5028V33.9765L57.8558 33.9767ZM46.7702 40.5616C42.0396 41.2033 41.6161 47.7426 44.3436 50.9684C47.071 54.1943 51.0831 56.9923 53.8973 60.2449L54.7202 60.6698L62.5671 53.2199C63.2556 52.4118 64.2185 51.7044 64.8849 50.8983C69.6436 45.1428 63.5433 36.4485 57.4427 42.6373C56.8564 43.232 55.4885 45.4089 54.8935 45.5458C54.2783 45.6874 54.0954 45.5777 53.6926 45.1672C51.6535 43.0883 50.4992 40.0557 46.7702 40.5616Z" fill="#79283B"/>
<path d="M14.8734 33.9766C13.0412 40.0706 15.2578 47.0013 18.9137 51.9733C19.602 52.9094 20.4929 54.4667 21.6805 53.1325L22.5163 46.121L25.1074 47.69V66.7251H6.2085C6.04845 66.7251 5.45801 66.1352 5.45801 65.9746V33.9766H14.8732H14.8734Z" fill="white"/>
<path d="M57.8557 33.9766V39.5029C56.6796 40.3416 55.5989 41.3514 54.7206 42.5084L54.5141 42.5729C54.0374 41.9564 53.5848 41.3353 53.0078 40.803C44.7783 33.2082 36.1025 44.6007 42.7135 52.4618L53.8302 63.1775C55.3694 64.2486 56.667 61.3845 57.8555 60.7213V65.9748C57.8555 66.1348 57.2656 66.7253 57.105 66.7253H38.2063V33.9767H57.8553L57.8557 33.9766Z" fill="white"/>
<path d="M36.0234 25.2438V66.7253H27.2905V48.1679C28.0363 48.28 28.7884 48.3529 29.5475 48.3101C33.5121 48.0862 30.8992 45.9197 29.8264 44.1992C25.902 37.9052 26.755 31.1096 30.9746 25.244H36.0234V25.2438Z" fill="white"/>
<path d="M46.7702 40.5615C50.499 40.0556 51.6532 43.0882 53.6925 45.1671C54.0952 45.5776 54.2782 45.6874 54.8935 45.5457C55.4885 45.4088 56.8566 43.2319 57.4426 42.6372C63.5432 36.4484 69.6436 45.1427 64.8849 50.8982C64.2184 51.7041 63.2555 52.4117 62.567 53.2198L54.7201 60.6697L53.8972 60.2448C51.0832 56.9922 47.0817 54.2069 44.3435 50.9683C41.6053 47.7297 42.0395 41.2032 46.7702 40.5615Z" fill="white"/>
<path d="M30.5654 23.0605H28.2457C27.0999 16.3585 23.1223 10.1256 16.6451 7.57536C15.246 7.02447 13.3224 6.18903 12.0041 7.1601C9.58217 8.94419 11.7874 11.3887 12.9881 13.1425C15.4986 16.8095 18.4315 20.1989 21.8324 23.059C17.1139 22.8999 12.9887 19.0488 10.1012 15.6201C7.86572 12.9655 5.31053 9.76687 7.17902 6.15567C9.95751 0.785358 19.2414 4.72669 22.7759 7.4483C27.5806 11.1481 29.9288 17.163 30.5654 23.0605Z" fill="white"/>
<path d="M32.7485 23.0604C33.3599 17.1534 35.7496 11.1562 40.538 7.44824C44.0672 4.71532 53.3623 0.798785 56.1349 6.15561C57.8862 9.53931 55.8062 12.3741 53.7586 14.9377C50.8069 18.6331 46.4829 22.8535 41.4816 23.059C44.8824 20.1986 47.8155 16.8095 50.3258 13.1425C51.4316 11.527 53.4997 9.2511 51.6668 7.41707C50.184 5.93339 47.2591 7.26121 45.6192 8.02665C39.7358 10.7721 36.1448 16.8053 35.0682 23.0604H32.7485Z" fill="white"/>
<path d="M28.3821 25.2438C24.9649 30.7741 23.9677 37.1255 26.7641 43.1678C27.2393 44.1948 27.9107 45.0966 28.3814 46.1202C26.7639 46.0197 25.0713 45.3739 23.8139 44.3441C23.0916 43.7526 22.0792 41.8371 21.01 43.0471C20.3737 43.7673 20.1179 48.1 19.9207 49.2594C19.2063 48.5516 18.6822 47.4165 18.2605 46.4862C15.0433 39.3898 15.8889 32.81 21.6242 27.4234C21.9255 27.1405 24.1821 25.2438 24.3567 25.2438H28.3821Z" fill="white"/>
<path d="M60.039 25.2438H38.2067V31.7935H60.039V25.2438Z" fill="white"/>
<path d="M20.7408 25.2438C18.8555 27.2133 16.795 29.1687 15.8285 31.7935H3.27484V25.2438H20.7408Z" fill="white"/>
</svg>
