<svg width="65" height="60" viewBox="0 0 65 60" fill="none" xmlns="http://www.w3.org/2000/svg">
<g clip-path="url(#clip0_46_344)">
<path d="M65 57.5048C64.6039 58.8223 63.6895 59.7781 62.2711 60.0002L2.31272 59.9146C-1.84787 58.323 0.0832944 53.182 4.32122 53.8876L4.31524 39.0987C4.34615 36.245 6.25314 33.7927 9.20248 33.4224H55.8019C58.7471 33.7914 60.6586 36.2424 60.6892 39.0987L60.6832 53.8876C62.6932 53.7065 64.4106 54.3694 65 56.3821V57.5048ZM9.11166 35.3292C7.13242 35.8038 6.1056 37.4976 6.245 39.4576C6.35413 39.766 6.84128 39.7356 7.09897 39.8665C8.26024 40.4561 9.33666 41.9646 10.6219 42.0279C12.1474 42.1032 12.8749 40.7172 14.0565 40.0639C15.2689 39.3934 16.7278 39.3299 17.9916 39.8908C19.2653 40.4561 20.1611 42.0358 21.6485 42.0353C23.0341 42.0348 23.6888 40.8089 24.7177 40.1864C25.9364 39.4492 27.4892 39.2822 28.8211 39.852C30.4598 40.5531 31.5723 43.0048 33.8142 41.6407C35.6191 40.5425 35.8193 39.2743 38.5306 39.5419C40.6573 39.7518 41.6405 42.0347 43.3559 42.0352C44.8322 42.0357 45.7216 40.4646 47.0128 39.8906C48.2355 39.347 49.6785 39.3889 50.8687 40.0169C52.0423 40.6361 52.8104 42.0414 54.2737 42.0342C55.6284 42.0274 56.7143 40.4712 57.9054 39.8664C58.223 39.7051 58.7008 39.798 58.7826 39.3508C58.8323 39.0788 58.653 37.9968 58.5665 37.6916C58.2355 36.5238 56.8988 35.4283 55.6704 35.298L9.11166 35.3292ZM58.7798 41.6613C58.0517 41.6948 57.6439 42.4413 57.1189 42.836C55.841 43.7964 54.5552 44.1685 52.9657 43.6949C50.8472 43.0638 49.9113 40.2671 47.3631 41.8566C45.9279 42.7518 45.47 43.9179 43.3562 43.9179C40.3021 43.9179 39.2349 39.9786 36.3961 41.9322C34.5754 43.1851 33.9196 44.4538 31.2276 43.725C29.4205 43.2358 28.7828 41.2033 26.7256 41.412C25.0308 41.5838 24.2347 43.9179 21.6488 43.9179C18.8242 43.9179 17.8846 40.8695 15.4883 41.4706C14.6659 41.6769 13.6935 42.8964 12.8283 43.3476C11.0554 44.2724 9.4388 44.003 7.88591 42.836C7.36073 42.4414 6.95295 41.6949 6.22503 41.6613V53.887H10.9855C11.8843 53.887 12.2155 55.5055 11.2121 55.7316C8.6815 55.9559 5.85834 55.5251 3.36384 55.7536C1.35763 55.9373 1.62906 57.977 2.98519 58.1314L62.341 58.0727C63.5814 57.3621 63.1974 55.8553 61.7634 55.7582L14.6645 55.7607C13.2906 55.6041 13.7541 53.8871 14.6669 53.8871H58.7801L58.7798 41.6613Z" fill="black"/>
<path d="M27.9322 17.7088L24.5663 14.7165C21.2013 11.1001 19.0612 4.93485 23.6819 1.36872C26.3018 -0.65333 30.0775 -0.388839 32.4552 1.85721C35.5573 -0.882947 40.3123 -0.582958 42.7629 2.82217C45.4706 6.58454 43.2409 11.6702 40.4378 14.7165L37.0719 17.7088H50.5915C51.5223 17.7088 53.022 18.391 53.6884 19.0317C56.1469 21.3951 54.7329 27.4357 55.068 30.5912C54.8216 31.9429 53.1938 31.5065 53.1938 30.8702V24.8198C52.5094 24.9491 52.003 25.6835 51.4775 26.0648C49.8992 27.2099 48.2628 27.432 46.5081 26.4623C45.1723 25.7242 44.7219 24.3062 42.8556 24.5789C41.2065 24.8199 40.5096 27.1522 37.7663 27.0722C35.1307 26.9953 34.2714 24.34 32.1809 24.5674C30.4218 24.7588 29.7468 27.1531 26.9759 27.0722C24.4748 26.9992 23.7005 24.8059 22.1482 24.5789C20.2268 24.2979 19.7087 25.8962 18.2449 26.5902C16.9407 27.2086 15.6708 27.2514 14.3634 26.6145C13.4139 26.1518 12.8024 25.1443 11.8099 24.8199V30.8703C11.8099 31.5068 10.1819 31.943 9.9357 30.5913C10.2709 27.4358 8.85686 21.3953 11.3154 19.0318C11.9818 18.3912 13.4814 17.7089 14.4122 17.7089H27.9318L27.9322 17.7088ZM27.2694 1.90045C25.259 2.12845 23.2609 3.78914 22.9921 5.80569C22.4381 9.96404 25.724 13.6668 28.8339 16.0118C30.3086 17.1238 31.6598 18.2047 33.6777 17.6789C34.2906 17.5191 37.1077 15.3205 37.7087 14.779C40.2811 12.4615 43.0973 8.42522 41.7035 4.8616C40.5138 1.81971 36.668 0.973362 34.0918 2.99092C33.6418 3.34328 33.0424 4.27262 32.4479 4.23462C31.9379 4.202 31.3282 3.31628 30.9128 2.99092C29.8606 2.16707 28.6271 1.74658 27.2695 1.90058L27.2694 1.90045ZM14.4481 19.6149C12.7393 19.8161 11.8192 20.9332 11.8255 22.6145C11.8965 22.8308 12.9923 23.1853 13.3254 23.3932C13.9606 23.7898 14.542 24.6155 15.1955 24.9238C17.5189 26.0196 18.3964 23.5617 20.2259 22.9226C21.2551 22.5631 22.4559 22.6221 23.4503 23.0492C24.7685 23.6154 25.6061 25.2124 27.1081 25.2036C28.5615 25.1953 29.2604 23.8227 30.4321 23.2217C32.2221 22.3037 33.8586 22.6032 35.4116 23.7697C36.2251 24.3808 36.6436 25.1963 37.8969 25.2035C39.6132 25.2135 40.5646 22.951 42.7351 22.7125C45.9159 22.3629 46.4075 24.8971 48.3388 25.1648C50.0412 25.4006 50.5167 24.1192 51.6795 23.3932C52.834 22.6723 53.6019 23.1533 52.9787 21.3515C52.5917 20.2324 51.4924 19.6563 50.3362 19.5821L14.4484 19.6149H14.4481Z" fill="black"/>
</g>
<defs>
<clipPath id="clip0_46_344">
<rect width="65" height="60" fill="white"/>
</clipPath>
</defs>
</svg>
